<?xml version="1.0" encoding="utf-8"?>
<!-- Generator: Adobe Illustrator 27.4.1, SVG Export Plug-In . SVG Version: 6.00 Build 0)  -->
<svg version="1.1" id="レイヤー_1" xmlns="http://www.w3.org/2000/svg" xmlns:xlink="http://www.w3.org/1999/xlink" x="0px"
	 y="0px" viewBox="0 0 269.9 272.7" style="enable-background:new 0 0 269.9 272.7;" xml:space="preserve">
<style type="text/css">
	.st0{fill:none;stroke:#442D18;stroke-miterlimit:10;}
	.st1{fill:#FFFFFF;}
	.st2{fill:#442D18;}
	.st3{fill:none;stroke:#442D18;stroke-width:0.5;stroke-miterlimit:10;}
</style>
<g>
	<g>
		<circle class="st0" cx="1556.6" cy="1599.2" r="122.1"/>
		<g>
			<g>
				<path class="st1" d="M1678,1599.1c-0.1,67.4-54.3,121.5-121.7,121.5c-67.3-0.1-121.2-54.5-121.1-122.2
					c0.1-66.7,54.7-120.8,121.8-120.7C1623.9,1477.9,1678.1,1532.2,1678,1599.1z M1556.7,1717.1c65-0.1,117.8-53,117.8-117.9
					c0-65-53-118.1-118-117.9c-65.4,0.2-118,52.7-117.9,118.1C1438.8,1664.7,1491.4,1716.9,1556.7,1717.1z"/>
				<path class="st1" d="M1614.7,1514.7c-6.2-0.1-12.4,0.3-18,3.4c-4.6,2.6-8.6,5.8-10.6,10.8c-0.1,0.4,0.3,1.2,0.7,1.5
					c1,0.9,3.4,1.4,2.3,3.3c-1,1.8-2.5,0.1-3.7-0.4c-4.6-2-9.4-2.8-14.3-2.7c-10,0.1-19.9,0.8-29.6,3.3c-13,3.3-25.3,8.2-35.5,17.2
					c-3.6,3.2-6.5,7.3-9.2,11.3c-7.1,10.6-11.4,22.2-13.1,34.9c-0.8,5.7,0.7,11,3.1,16.1c1.2,2.6,2.7,5.2,4.2,7.7
					c0.4,0.6,1.4,1.1,2.2,1.2c1.6,0.2,3.2,0,4.9,0.1c0.5,0,0.9,0.6,1.4,0.8c-0.3,0.4-0.5,1-0.9,1.2c-1.1,0.5-2.3,0.6-2.6,2.2
					c0,0.3-1.8,0.6-2.6,0.4c-5.9-1.9-10.5-5.2-11.8-11.7c-0.1-0.4-0.4-0.9-0.5-1.3c-0.4,0.3-0.7,0.6-1.1,0.9
					c-6,6.5-8.1,14.1-6.6,22.8c0.8,4.4,0.3,8.7-2.7,12.5c-1.1,1.4-2,3.1-2.9,4.7c-2,3.6-1.9,7.2,0.6,10.6c4.9,6.6,11,11.5,19,14.2
					c4.3,1.4,8.9,0.8,13,2.9c0.6,0.3,1.7-0.5,2.6-0.8c0.6-0.2,1.3-0.6,1.9-0.5c3.8,0.7,7.6,1.4,11.3,2.3c0.7,0.2,1.2,0.9,1.9,1.4
					c-0.7,0.4-1.4,0.9-2.2,1.1c-0.8,0.2-1.6-0.1-2.4-0.1c-3.1,0-5.9-1.4-9.2-0.4c-1.8,0.6-4.1-0.7-6.1-0.9c-2.5-0.3-5-0.5-7.5-0.4
					c-2,0.1-4.2,1.1-4.9-2c0-0.2-0.5-0.4-0.8-0.5c-5-0.8-8.6-4.3-12.4-7.2c-2.2-1.7-4.2-3.9-6-6.2c-4.4-5.5-4.6-11.2,0.1-16.4
					c4.3-4.7,4.6-9.6,3.4-15.3c-1.8-8.8,0.3-16.6,6.9-22.9c0.8-0.8,2.2-1,3.3-1.6c0.3-0.2,0.7-0.7,0.7-1.1c-0.2-2.3-0.4-4.6-0.7-6.9
					c-1.2-8.7,0.6-16.8,3.9-24.7c0.7-1.6,1.4-3.2,1.9-4.8c0.1-0.4-0.3-1.2-0.7-1.4c-3.1-1-5.6-2.5-7.2-5.6c-0.9-1.7-2.6-2.9-3.8-4.4
					c-4.9-6.7-5.8-14.1-3.8-21.9c2.9-11.8,9.6-20.7,20.9-25.8c5.7-2.6,11.4-2.6,17.5-1.5c10.3,1.8,16.5,8.3,20.9,17.3
					c0.2,0.4,1.2,0.8,1.6,0.6c10-3.6,20.3-5.8,31-5.9c4.8,0,9.5,0.1,14.3,0.3c1.3,0.1,2.6,0.8,3.8,1.3c1.3,0.6,2.3,0.9,3.1-0.9
					c1.3-3,4-4.7,6.4-6.8c3.2-2.7,6.5-4.9,10.4-6.2c8.7-2.8,17.6-3.9,26.6-1.7c6.7,1.6,11.7,6.2,15.3,11.9c4.8,7.7,7.5,16,7,25.3
					c-0.5,8.2-4.2,15-9.7,20.7c-1.9,2-5,2.7-7.4,4.2c-0.5,0.3-0.8,1.3-0.7,1.9c2.3,8.3,3.2,16.7,3.1,25.2
					c-0.1,6.1-1.4,11.9-4.4,17.3c-0.2,0.3-0.2,0.8-0.3,1.2c0.3,0,0.6,0,0.9,0c4.2-1,9.4,1.8,10.8,5.8c0.9,2.5,2,5,2.7,7.6
					c1.2,4.6,2.9,9.2,3.1,13.8c0.1,4.9,0,10.2-4.1,14.3c-2.5,2.6-4.4,5.8-6.4,8.9c-1.5,2.3-3.2,4.1-6.1,4.8c-1.1,0.3-2.2,1-3.1,1.7
					c-5.7,4.2-12.4,5.8-19.2,7.2c-3.6,0.7-7.3,1.2-10.9,1.4c-6.2,0.4-12.4,0.6-18.7,0.6c-2,0-4-1-6.1-1.5c-0.4-0.1-0.9,0.1-1.3,0.3
					c-3.6,2.1-7.6,1.9-11.5,2.1c-0.3,0-0.7-0.3-1.1-0.5c0.3-0.3,0.5-0.9,0.9-1c4.8-1.7,9.7-3.4,14.6-5c0.9-0.3,2-0.3,2.9-0.1
					c0.5,0.1,1.3,1.2,1.2,1.5c-0.9,1.9,0.5,1.6,1.4,1.5c10.8-1,21.7-0.7,32.5-3c8.3-1.8,15.3-5.7,21.6-11c2.3-2,3.3-5.6,5.6-7.5
					c5.1-4.2,4.5-9.8,4.6-15.2c0.2-6.8-3.5-12.8-4.9-19.2c-0.2-0.9-1.4-1.7-2.2-2.4c-1-0.8-2.2-1.2-3.1-2c-1.3-1.1-2.6-1.2-4-0.4
					c-0.2,0.1-0.5,0.4-0.7,0.3c-3.2-0.6-4.3,2.2-6.3,3.7c-3,2.1-6,4.1-9,6.1c-0.2,0.1-0.5,0.3-0.4,0.4c0.2,2.3-1.6,2.3-3,2.2
					c-4.4-0.3-8.8-0.7-13.2-1.2c-0.4,0-0.8-0.6-1.2-0.9c0.4-0.4,0.8-1,1.2-1c1.9,0,3.9,0.1,5.8,0.2c1.4,0.1,2.8,0.2,4.2,0.3
					c1.1,0,2.5,0.6,2.6-1.5c0-0.6,1.5-1.2,2.5-1.6c5.2-2,9.5-5.1,12.4-9.8c3.2-5.1,6.8-10.2,6.6-16.6c-0.1-4-0.6-7.9-0.9-11.9
					c-0.1-1.1,0.3-2.3,0.1-3.4c-2.3-10-4.2-20.1-11.7-27.9c-6.5-6.7-13.3-13.2-21.1-18.3c-1.5-0.9-2.9-1.9-4.2-3
					c-0.6-0.5-1-1.5-1.4-2.2c0.8-0.4,1.6-0.9,2.5-1.2c0.4-0.1,1,0.1,1.4,0.3c4,2.1,8.2,3.9,10.9,7.9c1,1.4,2.1,3,4.4,2.7
					c0.7-0.1,1.7,0.8,2.2,1.5c4.5,5.6,9,11.3,13.3,17c1.2,1.7,2,3.7,2.8,5.6c0.5,1.2,1.2,1.5,2.4,0.9c9.4-4.8,15.1-16,13.9-26.6
					c-0.8-7-3.4-13.3-7.1-19c-4.6-7-11.3-10.7-19.8-10.9C1617.5,1514.7,1616.1,1514.7,1614.7,1514.7z M1473.4,1547.1
					c0.2,5.2,0.5,9.6,3.5,13.1c2.2,2.5,4.9,4.6,7.4,6.9c0.9,0.8,1.6,1.9,2.4,2.8c0.2,0.3,0.3,0.7,0.5,1.1c0.4-0.3,0.9-0.4,1-0.8
					c0.9-1.8,1.7-3.6,2.7-5.4c8.3-14,19.6-24.3,34.8-30.3c1.8-0.7,1.8-1.4,0.9-2.8c-2.8-3.9-4.9-8.5-10.1-10.2
					c-3-0.9-5.7-2.4-8.7-3.2c-6.2-1.7-12.5-0.5-17.9,2.2C1478.7,1526,1474.5,1536.2,1473.4,1547.1z"/>
				<path class="st1" d="M1587.2,1610.8c0.8,7.9-3.4,12.5-8.8,16.4c-1.5,1.1-3.1,2.1-4.6,3.1c-0.2,0.2-0.5,0.4-0.7,0.6
					c0.2,0.1,0.5,0.2,0.7,0.3c4.8,0.8,9.6,1.7,14.4,2.5c0.6,0.1,1.1,0.4,1.7,0.6c-0.5,0.4-1.1,1.1-1.6,1.1c-4.1-0.2-8.2-0.3-12.2-1
					c-4.3-0.8-8.4-2.8-12.8-3.3c-6.1-0.7-11.9-2-17.4-4.8c-1.7-0.8-3.7-1-5.7-1.4c-3.1-0.7-6.2-1.3-9.4-1.9
					c-2.9-0.5-5.9-0.9-8.8-1.4c-1.3-0.2-2.8,0-4-0.5c-3.9-1.3-7.6-0.7-11.3,0.6c-1.4,0.5-2.9,0.8-4.4,1c-0.5,0.1-1-0.5-1.6-0.8
					c0.3-0.5,0.5-1.3,1-1.4c5.4-1.9,10.8-4.6,16.8-2c0.1,0,0.2,0.1,0.3,0.1c3.8,0.7,3.8,0.7,3.4-3.1c-0.9-8,2.8-14,8.6-19.1
					c6-5.2,13-7.5,20.8-8c6.6-0.5,12.9,0.7,18.9,3.4c0.6,0.3,1.2,0.8,1.9,0.9c4.6,0.9,7.8,3.7,10.8,7.2c2.4,2.7,3.8,5.4,3.8,8.9
					C1587.2,1609.6,1587.2,1610.4,1587.2,1610.8z M1524.9,1615.1c0.6,1.3,1,3.4,1.9,3.7c4.5,1.3,9.2,2,13.8,3.1
					c2.8,0.7,5.9,1,8.4,2.4c5.9,3.4,12.6,3,18.8,4.7c0.5,0.1,1.2,0,1.7-0.2c4.8-1.6,8.5-4.9,11.8-8.6c2.6-3,2.3-6.7,2.4-10.4
					c0.2-5.9-4.1-8.8-7.6-11.7c-2.9-2.4-7-3.4-10.7-4.5c-3.3-1-6.9-1.9-10.3-1.8c-5,0.1-9.9,0.6-14.8,2.5
					C1531.9,1597.5,1525.5,1605.9,1524.9,1615.1z"/>
				<path class="st1" d="M1549.5,1689c-6.3-1.3-12.6-2.7-19-3.9c-1-0.2-2,0.3-3.1,0.5c-1.9,0.4-3.9,0.9-5.8,1
					c-0.7,0-1.5-1.1-2.2-1.7c0.7-0.4,1.4-1,2.1-1.3c5.2-1.9,10.3-0.9,15.5,0.3c5.5,1.2,11.3,1.3,16.9,1.9c0.4,0,0.8-0.1,1.1,0.1
					c0.7,0.3,1.3,0.7,2,1c-0.6,0.4-1.2,0.9-1.8,1c-1.9,0.3-3.8,0.5-5.6,0.7C1549.6,1688.6,1549.5,1688.8,1549.5,1689z"/>
				<path class="st1" d="M1511.7,1591.5c-3.3,0-4.5-2-3.2-5c1.2-2.7,2.9-5,6-5.4c1.2-0.2,3.1,0.4,3.8,1.3c0.8,1.1,1.2,3.3,0.6,4.4
					C1517.5,1589.6,1515.1,1591.4,1511.7,1591.5z"/>
				<path class="st1" d="M1595.6,1586.2c-0.9,1.2-1.5,2.8-2.6,3.6c-1.7,1-3.5,0.1-4.8-1.3c-1-1.1-2-2.3-2.7-3.6
					c-1-1.9-0.5-3.6,1.2-4.9c1.6-1.2,3.4-1.2,5,0c1.9,1.5,3.9,2.9,3.3,5.8C1595.1,1585.9,1595.4,1586.1,1595.6,1586.2z"/>
				<path class="st1" d="M1565,1617c-4.9-0.7-8.6-1.6-11.6-4.4c-0.3-0.3-1.5-0.2-1.8,0.1c-4.7,5.3-13.3,7.5-19.8,0
					c-1.3-1.5-1.3-4-1.7-6.1c-0.1-0.4,0.9-1,1.4-1.5c0.5,0.5,1.3,1,1.3,1.5c0.9,6.6,9.2,9.5,14.5,5.2c1.1-0.9,2.3-1.8,3.3-2.9
					c0.4-0.4,0.6-1.3,0.5-1.9c-0.1-0.4-0.8-0.6-1.3-0.9c-0.1-0.1-0.3,0-0.5-0.1c-2.1-0.5-4.4-1.1-4.7-3.6c-0.3-2.4,1.8-3.3,3.6-3.9
					c2.2-0.7,4.4-1.2,6.7-1.7c0.6-0.1,1.4,0,1.9,0.3c1.4,1.1,3.1,2.2,3.6,3.7c0.3,0.8-1.4,2.4-2.4,3.6c-0.5,0.6-1.4,1-2.1,1.1
					c-2.3,0.4-1.8,1.7-1.1,3.1c1.4,2.7,7.5,5.1,10.7,4.3c3.6-1,6.7-2.5,8.2-6.2c0.2-0.6,1.3-0.8,2-1.2c0.3,0.7,1,1.5,0.9,2.2
					c-0.4,2.9-2,5.2-4.4,6.5C1569.8,1615.4,1567,1616.3,1565,1617z"/>
			</g>
			<g>
				<path class="st2" d="M1678,1599.1c-0.1,67.4-54.3,121.5-121.7,121.5c-67.3-0.1-121.2-54.5-121.1-122.2
					c0.1-66.7,54.7-120.8,121.8-120.7C1623.9,1477.9,1678.1,1532.2,1678,1599.1z M1556.7,1717.1c65-0.1,117.8-53,117.8-117.9
					c0-65-53-118.1-118-117.9c-65.4,0.2-118,52.7-117.9,118.1C1438.8,1664.7,1491.4,1716.9,1556.7,1717.1z"/>
				<path class="st2" d="M1614.7,1514.7c-6.2-0.1-12.4,0.3-18,3.4c-4.6,2.6-8.6,5.8-10.6,10.8c-0.1,0.4,0.3,1.2,0.7,1.5
					c1,0.9,3.4,1.4,2.3,3.3c-1,1.8-2.5,0.1-3.7-0.4c-4.6-2-9.4-2.8-14.3-2.7c-10,0.1-19.9,0.8-29.6,3.3c-13,3.3-25.3,8.2-35.5,17.2
					c-3.6,3.2-6.5,7.3-9.2,11.3c-7.1,10.6-11.4,22.2-13.1,34.9c-0.8,5.7,0.7,11,3.1,16.1c1.2,2.6,2.7,5.2,4.2,7.7
					c0.4,0.6,1.4,1.1,2.2,1.2c1.6,0.2,3.2,0,4.9,0.1c0.5,0,0.9,0.6,1.4,0.8c-0.3,0.4-0.5,1-0.9,1.2c-1.1,0.5-2.3,0.6-2.6,2.2
					c0,0.3-1.8,0.6-2.6,0.4c-5.9-1.9-10.5-5.2-11.8-11.7c-0.1-0.4-0.4-0.9-0.5-1.3c-0.4,0.3-0.7,0.6-1.1,0.9
					c-6,6.5-8.1,14.1-6.6,22.8c0.8,4.4,0.3,8.7-2.7,12.5c-1.1,1.4-2,3.1-2.9,4.7c-2,3.6-1.9,7.2,0.6,10.6c4.9,6.6,11,11.5,19,14.2
					c4.3,1.4,8.9,0.8,13,2.9c0.6,0.3,1.7-0.5,2.6-0.8c0.6-0.2,1.3-0.6,1.9-0.5c3.8,0.7,7.6,1.4,11.3,2.3c0.7,0.2,1.2,0.9,1.9,1.4
					c-0.7,0.4-1.4,0.9-2.2,1.1c-0.8,0.2-1.6-0.1-2.4-0.1c-3.1,0-5.9-1.4-9.2-0.4c-1.8,0.6-4.1-0.7-6.1-0.9c-2.5-0.3-5-0.5-7.5-0.4
					c-2,0.1-4.2,1.1-4.9-2c0-0.2-0.5-0.4-0.8-0.5c-5-0.8-8.6-4.3-12.4-7.2c-2.2-1.7-4.2-3.9-6-6.2c-4.4-5.5-4.6-11.2,0.1-16.4
					c4.3-4.7,4.6-9.6,3.4-15.3c-1.8-8.8,0.3-16.6,6.9-22.9c0.8-0.8,2.2-1,3.3-1.6c0.3-0.2,0.7-0.7,0.7-1.1c-0.2-2.3-0.4-4.6-0.7-6.9
					c-1.2-8.7,0.6-16.8,3.9-24.7c0.7-1.6,1.4-3.2,1.9-4.8c0.1-0.4-0.3-1.2-0.7-1.4c-3.1-1-5.6-2.5-7.2-5.6c-0.9-1.7-2.6-2.9-3.8-4.4
					c-4.9-6.7-5.8-14.1-3.8-21.9c2.9-11.8,9.6-20.7,20.9-25.8c5.7-2.6,11.4-2.6,17.5-1.5c10.3,1.8,16.5,8.3,20.9,17.3
					c0.2,0.4,1.2,0.8,1.6,0.6c10-3.6,20.3-5.8,31-5.9c4.8,0,9.5,0.1,14.3,0.3c1.3,0.1,2.6,0.8,3.8,1.3c1.3,0.6,2.3,0.9,3.1-0.9
					c1.3-3,4-4.7,6.4-6.8c3.2-2.7,6.5-4.9,10.4-6.2c8.7-2.8,17.6-3.9,26.6-1.7c6.7,1.6,11.7,6.2,15.3,11.9c4.8,7.7,7.5,16,7,25.3
					c-0.5,8.2-4.2,15-9.7,20.7c-1.9,2-5,2.7-7.4,4.2c-0.5,0.3-0.8,1.3-0.7,1.9c2.3,8.3,3.2,16.7,3.1,25.2
					c-0.1,6.1-1.4,11.9-4.4,17.3c-0.2,0.3-0.2,0.8-0.3,1.2c0.3,0,0.6,0,0.9,0c4.2-1,9.4,1.8,10.8,5.8c0.9,2.5,2,5,2.7,7.6
					c1.2,4.6,2.9,9.2,3.1,13.8c0.1,4.9,0,10.2-4.1,14.3c-2.5,2.6-4.4,5.8-6.4,8.9c-1.5,2.3-3.2,4.1-6.1,4.8c-1.1,0.3-2.2,1-3.1,1.7
					c-5.7,4.2-12.4,5.8-19.2,7.2c-3.6,0.7-7.3,1.2-10.9,1.4c-6.2,0.4-12.4,0.6-18.7,0.6c-2,0-4-1-6.1-1.5c-0.4-0.1-0.9,0.1-1.3,0.3
					c-3.6,2.1-7.6,1.9-11.5,2.1c-0.3,0-0.7-0.3-1.1-0.5c0.3-0.3,0.5-0.9,0.9-1c4.8-1.7,9.7-3.4,14.6-5c0.9-0.3,2-0.3,2.9-0.1
					c0.5,0.1,1.3,1.2,1.2,1.5c-0.9,1.9,0.5,1.6,1.4,1.5c10.8-1,21.7-0.7,32.5-3c8.3-1.8,15.3-5.7,21.6-11c2.3-2,3.3-5.6,5.6-7.5
					c5.1-4.2,4.5-9.8,4.6-15.2c0.2-6.8-3.5-12.8-4.9-19.2c-0.2-0.9-1.4-1.7-2.2-2.4c-1-0.8-2.2-1.2-3.1-2c-1.3-1.1-2.6-1.2-4-0.4
					c-0.2,0.1-0.5,0.4-0.7,0.3c-3.2-0.6-4.3,2.2-6.3,3.7c-3,2.1-6,4.1-9,6.1c-0.2,0.1-0.5,0.3-0.4,0.4c0.2,2.3-1.6,2.3-3,2.2
					c-4.4-0.3-8.8-0.7-13.2-1.2c-0.4,0-0.8-0.6-1.2-0.9c0.4-0.4,0.8-1,1.2-1c1.9,0,3.9,0.1,5.8,0.2c1.4,0.1,2.8,0.2,4.2,0.3
					c1.1,0,2.5,0.6,2.6-1.5c0-0.6,1.5-1.2,2.5-1.6c5.2-2,9.5-5.1,12.4-9.8c3.2-5.1,6.8-10.2,6.6-16.6c-0.1-4-0.6-7.9-0.9-11.9
					c-0.1-1.1,0.3-2.3,0.1-3.4c-2.3-10-4.2-20.1-11.7-27.9c-6.5-6.7-13.3-13.2-21.1-18.3c-1.5-0.9-2.9-1.9-4.2-3
					c-0.6-0.5-1-1.5-1.4-2.2c0.8-0.4,1.6-0.9,2.5-1.2c0.4-0.1,1,0.1,1.4,0.3c4,2.1,8.2,3.9,10.9,7.9c1,1.4,2.1,3,4.4,2.7
					c0.7-0.1,1.7,0.8,2.2,1.5c4.5,5.6,9,11.3,13.3,17c1.2,1.7,2,3.7,2.8,5.6c0.5,1.2,1.2,1.5,2.4,0.9c9.4-4.8,15.1-16,13.9-26.6
					c-0.8-7-3.4-13.3-7.1-19c-4.6-7-11.3-10.7-19.8-10.9C1617.5,1514.7,1616.1,1514.7,1614.7,1514.7z M1473.4,1547.1
					c0.2,5.2,0.5,9.6,3.5,13.1c2.2,2.5,4.9,4.6,7.4,6.9c0.9,0.8,1.6,1.9,2.4,2.8c0.2,0.3,0.3,0.7,0.5,1.1c0.4-0.3,0.9-0.4,1-0.8
					c0.9-1.8,1.7-3.6,2.7-5.4c8.3-14,19.6-24.3,34.8-30.3c1.8-0.7,1.8-1.4,0.9-2.8c-2.8-3.9-4.9-8.5-10.1-10.2
					c-3-0.9-5.7-2.4-8.7-3.2c-6.2-1.7-12.5-0.5-17.9,2.2C1478.7,1526,1474.5,1536.2,1473.4,1547.1z"/>
				<path class="st2" d="M1587.2,1610.8c0.8,7.9-3.4,12.5-8.8,16.4c-1.5,1.1-3.1,2.1-4.6,3.1c-0.2,0.2-0.5,0.4-0.7,0.6
					c0.2,0.1,0.5,0.2,0.7,0.3c4.8,0.8,9.6,1.7,14.4,2.5c0.6,0.1,1.1,0.4,1.7,0.6c-0.5,0.4-1.1,1.1-1.6,1.1c-4.1-0.2-8.2-0.3-12.2-1
					c-4.3-0.8-8.4-2.8-12.8-3.3c-6.1-0.7-11.9-2-17.4-4.8c-1.7-0.8-3.7-1-5.7-1.4c-3.1-0.7-6.2-1.3-9.4-1.9
					c-2.9-0.5-5.9-0.9-8.8-1.4c-1.3-0.2-2.8,0-4-0.5c-3.9-1.3-7.6-0.7-11.3,0.6c-1.4,0.5-2.9,0.8-4.4,1c-0.5,0.1-1-0.5-1.6-0.8
					c0.3-0.5,0.5-1.3,1-1.4c5.4-1.9,10.8-4.6,16.8-2c0.1,0,0.2,0.1,0.3,0.1c3.8,0.7,3.8,0.7,3.4-3.1c-0.9-8,2.8-14,8.6-19.1
					c6-5.2,13-7.5,20.8-8c6.6-0.5,12.9,0.7,18.9,3.4c0.6,0.3,1.2,0.8,1.9,0.9c4.6,0.9,7.8,3.7,10.8,7.2c2.4,2.7,3.8,5.4,3.8,8.9
					C1587.2,1609.6,1587.2,1610.4,1587.2,1610.8z M1524.9,1615.1c0.6,1.3,1,3.4,1.9,3.7c4.5,1.3,9.2,2,13.8,3.1
					c2.8,0.7,5.9,1,8.4,2.4c5.9,3.4,12.6,3,18.8,4.7c0.5,0.1,1.2,0,1.7-0.2c4.8-1.6,8.5-4.9,11.8-8.6c2.6-3,2.3-6.7,2.4-10.4
					c0.2-5.9-4.1-8.8-7.6-11.7c-2.9-2.4-7-3.4-10.7-4.5c-3.3-1-6.9-1.9-10.3-1.8c-5,0.1-9.9,0.6-14.8,2.5
					C1531.9,1597.5,1525.5,1605.9,1524.9,1615.1z"/>
				<path class="st2" d="M1549.5,1689c-6.3-1.3-12.6-2.7-19-3.9c-1-0.2-2,0.3-3.1,0.5c-1.9,0.4-3.9,0.9-5.8,1
					c-0.7,0-1.5-1.1-2.2-1.7c0.7-0.4,1.4-1,2.1-1.3c5.2-1.9,10.3-0.9,15.5,0.3c5.5,1.2,11.3,1.3,16.9,1.9c0.4,0,0.8-0.1,1.1,0.1
					c0.7,0.3,1.3,0.7,2,1c-0.6,0.4-1.2,0.9-1.8,1c-1.9,0.3-3.8,0.5-5.6,0.7C1549.6,1688.6,1549.5,1688.8,1549.5,1689z"/>
				<path class="st2" d="M1511.7,1591.5c-3.3,0-4.5-2-3.2-5c1.2-2.7,2.9-5,6-5.4c1.2-0.2,3.1,0.4,3.8,1.3c0.8,1.1,1.2,3.3,0.6,4.4
					C1517.5,1589.6,1515.1,1591.4,1511.7,1591.5z"/>
				<path class="st2" d="M1595.6,1586.2c-0.9,1.2-1.5,2.8-2.6,3.6c-1.7,1-3.5,0.1-4.8-1.3c-1-1.1-2-2.3-2.7-3.6
					c-1-1.9-0.5-3.6,1.2-4.9c1.6-1.2,3.4-1.2,5,0c1.9,1.5,3.9,2.9,3.3,5.8C1595.1,1585.9,1595.4,1586.1,1595.6,1586.2z"/>
				<path class="st2" d="M1565,1617c-4.9-0.7-8.6-1.6-11.6-4.4c-0.3-0.3-1.5-0.2-1.8,0.1c-4.7,5.3-13.3,7.5-19.8,0
					c-1.3-1.5-1.3-4-1.7-6.1c-0.1-0.4,0.9-1,1.4-1.5c0.5,0.5,1.3,1,1.3,1.5c0.9,6.6,9.2,9.5,14.5,5.2c1.1-0.9,2.3-1.8,3.3-2.9
					c0.4-0.4,0.6-1.3,0.5-1.9c-0.1-0.4-0.8-0.6-1.3-0.9c-0.1-0.1-0.3,0-0.5-0.1c-2.1-0.5-4.4-1.1-4.7-3.6c-0.3-2.4,1.8-3.3,3.6-3.9
					c2.2-0.7,4.4-1.2,6.7-1.7c0.6-0.1,1.4,0,1.9,0.3c1.4,1.1,3.1,2.2,3.6,3.7c0.3,0.8-1.4,2.4-2.4,3.6c-0.5,0.6-1.4,1-2.1,1.1
					c-2.3,0.4-1.8,1.7-1.1,3.1c1.4,2.7,7.5,5.1,10.7,4.3c3.6-1,6.7-2.5,8.2-6.2c0.2-0.6,1.3-0.8,2-1.2c0.3,0.7,1,1.5,0.9,2.2
					c-0.4,2.9-2,5.2-4.4,6.5C1569.8,1615.4,1567,1616.3,1565,1617z"/>
			</g>
		</g>
	</g>
	<path id="SVGID_x5F_1_x5F_" style="fill:none;" d="M1418.2,1660.5c0,0,31.4,88.1,140.9,88.1c109.5,0,139.1-95.3,139.1-95.3"/>
	<text>	<textPath  xlink:href="#SVGID_x5F_1_x5F_" startOffset="8.496%">
<tspan  class="st2" style="font-family:'KiwiMaru-Regular'; font-size:23.1847px; letter-spacing:40;">SHIROKUMASAN HOUSE</tspan>	</textPath>
</text>
</g>
<g>
	<g>
		<circle class="st0" cx="133.1" cy="122.6" r="122.1"/>
		<g>
			<g>
				<path class="st1" d="M254.5,122.6C254.5,190,200.2,244.1,132.8,244C65.6,244,11.6,189.5,11.7,121.9
					C11.8,55.2,66.4,1.1,133.5,1.2C200.4,1.3,254.6,55.7,254.5,122.6z M133.2,240.6c65-0.1,117.8-53,117.8-117.9
					c0-65-53-118.1-118-117.9C67.7,4.9,15.1,57.4,15.2,122.8C15.3,188.1,67.9,240.3,133.2,240.6z"/>
				<path class="st1" d="M191.2,38.1c-6.2-0.1-12.4,0.3-18,3.4c-4.6,2.6-8.6,5.8-10.6,10.8c-0.1,0.4,0.3,1.2,0.7,1.5
					c1,0.9,3.4,1.4,2.3,3.3c-1,1.8-2.5,0.1-3.7-0.4c-4.6-2-9.4-2.8-14.3-2.7c-10,0.1-19.9,0.8-29.6,3.3c-13,3.3-25.3,8.2-35.5,17.2
					c-3.6,3.2-6.5,7.3-9.2,11.3c-7.1,10.6-11.4,22.2-13.1,34.9c-0.8,5.7,0.7,11,3.1,16.1c1.2,2.6,2.7,5.2,4.2,7.7
					c0.4,0.6,1.4,1.1,2.2,1.2c1.6,0.2,3.2,0,4.9,0.1c0.5,0,0.9,0.6,1.4,0.8c-0.3,0.4-0.5,1-0.9,1.2c-1.1,0.5-2.3,0.6-2.6,2.2
					c0,0.3-1.8,0.6-2.6,0.4c-5.9-1.9-10.5-5.2-11.8-11.7c-0.1-0.4-0.4-0.9-0.5-1.3c-0.4,0.3-0.7,0.6-1.1,0.9
					c-6,6.5-8.1,14.1-6.6,22.8c0.8,4.4,0.3,8.7-2.7,12.5c-1.1,1.4-2,3.1-2.9,4.7c-2,3.6-1.9,7.2,0.6,10.6c4.9,6.6,11,11.5,19,14.2
					c4.3,1.4,8.9,0.8,13,2.9c0.6,0.3,1.7-0.5,2.6-0.8c0.6-0.2,1.3-0.6,1.9-0.5c3.8,0.7,7.6,1.4,11.3,2.3c0.7,0.2,1.2,0.9,1.9,1.4
					c-0.7,0.4-1.4,0.9-2.2,1.1c-0.8,0.2-1.6-0.1-2.4-0.1c-3.1,0-5.9-1.4-9.2-0.4c-1.8,0.6-4.1-0.7-6.1-0.9c-2.5-0.3-5-0.5-7.5-0.4
					c-2,0.1-4.2,1.1-4.9-2c0-0.2-0.5-0.4-0.8-0.5c-5-0.8-8.6-4.3-12.4-7.2c-2.2-1.7-4.2-3.9-6-6.2c-4.4-5.5-4.6-11.2,0.1-16.4
					c4.3-4.7,4.6-9.6,3.4-15.3c-1.8-8.8,0.3-16.6,6.9-22.9c0.8-0.8,2.2-1,3.3-1.6c0.3-0.2,0.7-0.7,0.7-1.1c-0.2-2.3-0.4-4.6-0.7-6.9
					c-1.2-8.7,0.6-16.8,3.9-24.7c0.7-1.6,1.4-3.2,1.9-4.8c0.1-0.4-0.3-1.2-0.7-1.4c-3.1-1-5.6-2.5-7.2-5.6c-0.9-1.7-2.6-2.9-3.8-4.4
					c-4.9-6.7-5.8-14.1-3.8-21.9c2.9-11.8,9.6-20.7,20.9-25.8c5.7-2.6,11.4-2.6,17.5-1.5c10.3,1.8,16.5,8.3,20.9,17.3
					c0.2,0.4,1.2,0.8,1.6,0.6c10-3.6,20.3-5.8,31-5.9c4.8,0,9.5,0.1,14.3,0.3c1.3,0.1,2.6,0.8,3.8,1.3c1.3,0.6,2.3,0.9,3.1-0.9
					c1.3-3,4-4.7,6.4-6.8c3.2-2.7,6.5-4.9,10.4-6.2c8.7-2.8,17.6-3.9,26.6-1.7c6.7,1.6,11.7,6.2,15.3,11.9c4.8,7.7,7.5,16,7,25.3
					c-0.5,8.2-4.2,15-9.7,20.7c-1.9,2-5,2.7-7.4,4.2c-0.5,0.3-0.8,1.3-0.7,1.9c2.3,8.3,3.2,16.7,3.1,25.2
					c-0.1,6.1-1.4,11.9-4.4,17.3c-0.2,0.3-0.2,0.8-0.3,1.2c0.3,0,0.6,0,0.9,0c4.2-1,9.4,1.8,10.8,5.8c0.9,2.5,2,5,2.7,7.6
					c1.2,4.6,2.9,9.2,3.1,13.8c0.1,4.9,0,10.2-4.1,14.3c-2.5,2.6-4.4,5.8-6.4,8.9c-1.5,2.3-3.2,4.1-6.1,4.8c-1.1,0.3-2.2,1-3.1,1.7
					c-5.7,4.2-12.4,5.8-19.2,7.2c-3.6,0.7-7.3,1.2-10.9,1.4c-6.2,0.4-12.4,0.6-18.7,0.6c-2,0-4-1-6.1-1.5c-0.4-0.1-0.9,0.1-1.3,0.3
					c-3.6,2.1-7.6,1.9-11.5,2.1c-0.3,0-0.7-0.3-1.1-0.5c0.3-0.3,0.5-0.9,0.9-1c4.8-1.7,9.7-3.4,14.6-5c0.9-0.3,2-0.3,2.9-0.1
					c0.5,0.1,1.3,1.2,1.2,1.5c-0.9,1.9,0.5,1.6,1.4,1.5c10.8-1,21.7-0.7,32.5-3c8.3-1.8,15.3-5.7,21.6-11c2.3-2,3.3-5.6,5.6-7.5
					c5.1-4.2,4.5-9.8,4.6-15.2c0.2-6.8-3.5-12.8-4.9-19.2c-0.2-0.9-1.4-1.7-2.2-2.4c-1-0.8-2.2-1.2-3.1-2c-1.3-1.1-2.6-1.2-4-0.4
					c-0.2,0.1-0.5,0.4-0.7,0.3c-3.2-0.6-4.3,2.2-6.3,3.7c-3,2.1-6,4.1-9,6.1c-0.2,0.1-0.5,0.3-0.4,0.4c0.2,2.3-1.6,2.3-3,2.2
					c-4.4-0.3-8.8-0.7-13.2-1.2c-0.4,0-0.8-0.6-1.2-0.9c0.4-0.4,0.8-1,1.2-1c1.9,0,3.9,0.1,5.8,0.2c1.4,0.1,2.8,0.2,4.2,0.3
					c1.1,0,2.5,0.6,2.6-1.5c0-0.6,1.5-1.2,2.5-1.6c5.2-2,9.5-5.1,12.4-9.8c3.2-5.1,6.8-10.2,6.6-16.6c-0.1-4-0.6-7.9-0.9-11.9
					c-0.1-1.1,0.3-2.3,0.1-3.4c-2.3-10-4.2-20.1-11.7-27.9c-6.5-6.7-13.3-13.2-21.1-18.3c-1.5-0.9-2.9-1.9-4.2-3
					c-0.6-0.5-1-1.5-1.4-2.2c0.8-0.4,1.6-0.9,2.5-1.2c0.4-0.1,1,0.1,1.4,0.3c4,2.1,8.2,3.9,10.9,7.9c1,1.4,2.1,3,4.4,2.7
					c0.7-0.1,1.7,0.8,2.2,1.5c4.5,5.6,9,11.3,13.3,17c1.2,1.7,2,3.7,2.8,5.6c0.5,1.2,1.2,1.5,2.4,0.9c9.4-4.8,15.1-16,13.9-26.6
					c-0.8-7-3.4-13.3-7.1-19c-4.6-7-11.3-10.7-19.8-10.9C194.1,38.1,192.6,38.1,191.2,38.1z M49.9,70.5c0.2,5.2,0.5,9.6,3.5,13.1
					c2.2,2.5,4.9,4.6,7.4,6.9c0.9,0.8,1.6,1.9,2.4,2.8c0.2,0.3,0.3,0.7,0.5,1.1c0.4-0.3,0.9-0.4,1-0.8c0.9-1.8,1.7-3.6,2.7-5.4
					C75.7,74.4,87,64,102.2,58c1.8-0.7,1.8-1.4,0.9-2.8c-2.8-3.9-4.9-8.5-10.1-10.2c-3-0.9-5.7-2.4-8.7-3.2
					c-6.2-1.7-12.5-0.5-17.9,2.2C55.3,49.4,51,59.6,49.9,70.5z"/>
				<path class="st1" d="M163.7,134.2c0.8,7.9-3.4,12.5-8.8,16.4c-1.5,1.1-3.1,2.1-4.6,3.1c-0.2,0.2-0.5,0.4-0.7,0.6
					c0.2,0.1,0.5,0.2,0.7,0.3c4.8,0.8,9.6,1.7,14.4,2.5c0.6,0.1,1.1,0.4,1.7,0.6c-0.5,0.4-1.1,1.1-1.6,1.1c-4.1-0.2-8.2-0.3-12.2-1
					c-4.3-0.8-8.4-2.8-12.8-3.3c-6.1-0.7-11.9-2-17.4-4.8c-1.7-0.8-3.7-1-5.7-1.4c-3.1-0.7-6.2-1.3-9.4-1.9
					c-2.9-0.5-5.9-0.9-8.8-1.4c-1.3-0.2-2.8,0-4-0.5c-3.9-1.3-7.6-0.7-11.3,0.6c-1.4,0.5-2.9,0.8-4.4,1c-0.5,0.1-1-0.5-1.6-0.8
					c0.3-0.5,0.5-1.3,1-1.4c5.4-1.9,10.8-4.6,16.8-2c0.1,0,0.2,0.1,0.3,0.1c3.8,0.7,3.8,0.7,3.4-3.1c-0.9-8,2.8-14,8.6-19.1
					c6-5.2,13-7.5,20.8-8c6.6-0.5,12.9,0.7,18.9,3.4c0.6,0.3,1.2,0.8,1.9,0.9c4.6,0.9,7.8,3.7,10.8,7.2c2.4,2.7,3.8,5.4,3.8,8.9
					C163.7,133,163.7,133.9,163.7,134.2z M101.4,138.6c0.6,1.3,1,3.4,1.9,3.7c4.5,1.3,9.2,2,13.8,3.1c2.8,0.7,5.9,1,8.4,2.4
					c5.9,3.4,12.6,3,18.8,4.7c0.5,0.1,1.2,0,1.7-0.2c4.8-1.6,8.5-4.9,11.8-8.6c2.6-3,2.3-6.7,2.4-10.4c0.2-5.9-4.1-8.8-7.6-11.7
					c-2.9-2.4-7-3.4-10.7-4.5c-3.3-1-6.9-1.9-10.3-1.8c-5,0.1-9.9,0.6-14.8,2.5C108.4,121,102,129.4,101.4,138.6z"/>
				<path class="st1" d="M126,212.4c-6.3-1.3-12.6-2.7-19-3.9c-1-0.2-2,0.3-3.1,0.5c-1.9,0.4-3.9,0.9-5.8,1c-0.7,0-1.5-1.1-2.2-1.7
					c0.7-0.4,1.4-1,2.1-1.3c5.2-1.9,10.3-0.9,15.5,0.3c5.5,1.2,11.3,1.3,16.9,1.9c0.4,0,0.8-0.1,1.1,0.1c0.7,0.3,1.3,0.7,2,1
					c-0.6,0.4-1.2,0.9-1.8,1c-1.9,0.3-3.8,0.5-5.6,0.7C126.1,212.1,126,212.3,126,212.4z"/>
				<path class="st1" d="M88.2,114.9c-3.3,0-4.5-2-3.2-5c1.2-2.7,2.9-5,6-5.4c1.2-0.2,3.1,0.4,3.8,1.3c0.8,1.1,1.2,3.3,0.6,4.4
					C94,113,91.6,114.9,88.2,114.9z"/>
				<path class="st1" d="M172.1,109.7c-0.9,1.2-1.5,2.8-2.6,3.6c-1.7,1-3.5,0.1-4.8-1.3c-1-1.1-2-2.3-2.7-3.6
					c-1-1.9-0.5-3.6,1.2-4.9c1.6-1.2,3.4-1.2,5,0c1.9,1.5,3.9,2.9,3.3,5.8C171.7,109.4,171.9,109.5,172.1,109.7z"/>
				<path class="st1" d="M141.5,140.5c-4.9-0.7-8.6-1.6-11.6-4.4c-0.3-0.3-1.5-0.2-1.8,0.1c-4.7,5.3-13.3,7.5-19.8,0
					c-1.3-1.5-1.3-4-1.7-6.1c-0.1-0.4,0.9-1,1.4-1.5c0.5,0.5,1.3,1,1.3,1.5c0.9,6.6,9.2,9.5,14.5,5.2c1.1-0.9,2.3-1.8,3.3-2.9
					c0.4-0.4,0.6-1.3,0.5-1.9c-0.1-0.4-0.8-0.6-1.3-0.9c-0.1-0.1-0.3,0-0.5-0.1c-2.1-0.5-4.4-1.1-4.7-3.6c-0.3-2.4,1.8-3.3,3.6-3.9
					c2.2-0.7,4.4-1.2,6.7-1.7c0.6-0.1,1.4,0,1.9,0.3c1.4,1.1,3.1,2.2,3.6,3.7c0.3,0.8-1.4,2.4-2.4,3.6c-0.5,0.6-1.4,1-2.1,1.1
					c-2.3,0.4-1.8,1.7-1.1,3.1c1.4,2.7,7.5,5.1,10.7,4.3c3.6-1,6.7-2.5,8.2-6.2c0.2-0.6,1.3-0.8,2-1.2c0.3,0.7,1,1.5,0.9,2.2
					c-0.4,2.9-2,5.2-4.4,6.5C146.3,138.9,143.5,139.7,141.5,140.5z"/>
			</g>
			<g>
				<path class="st2" d="M254.5,122.6C254.5,190,200.2,244.1,132.8,244C65.6,244,11.6,189.5,11.7,121.9
					C11.8,55.2,66.4,1.1,133.5,1.2C200.4,1.3,254.6,55.7,254.5,122.6z M133.2,240.6c65-0.1,117.8-53,117.8-117.9
					c0-65-53-118.1-118-117.9C67.7,4.9,15.1,57.4,15.2,122.8C15.3,188.1,67.9,240.3,133.2,240.6z"/>
				<path class="st2" d="M191.2,38.1c-6.2-0.1-12.4,0.3-18,3.4c-4.6,2.6-8.6,5.8-10.6,10.8c-0.1,0.4,0.3,1.2,0.7,1.5
					c1,0.9,3.4,1.4,2.3,3.3c-1,1.8-2.5,0.1-3.7-0.4c-4.6-2-9.4-2.8-14.3-2.7c-10,0.1-19.9,0.8-29.6,3.3c-13,3.3-25.3,8.2-35.5,17.2
					c-3.6,3.2-6.5,7.3-9.2,11.3c-7.1,10.6-11.4,22.2-13.1,34.9c-0.8,5.7,0.7,11,3.1,16.1c1.2,2.6,2.7,5.2,4.2,7.7
					c0.4,0.6,1.4,1.1,2.2,1.2c1.6,0.2,3.2,0,4.9,0.1c0.5,0,0.9,0.6,1.4,0.8c-0.3,0.4-0.5,1-0.9,1.2c-1.1,0.5-2.3,0.6-2.6,2.2
					c0,0.3-1.8,0.6-2.6,0.4c-5.9-1.9-10.5-5.2-11.8-11.7c-0.1-0.4-0.4-0.9-0.5-1.3c-0.4,0.3-0.7,0.6-1.1,0.9
					c-6,6.5-8.1,14.1-6.6,22.8c0.8,4.4,0.3,8.7-2.7,12.5c-1.1,1.4-2,3.1-2.9,4.7c-2,3.6-1.9,7.2,0.6,10.6c4.9,6.6,11,11.5,19,14.2
					c4.3,1.4,8.9,0.8,13,2.9c0.6,0.3,1.7-0.5,2.6-0.8c0.6-0.2,1.3-0.6,1.9-0.5c3.8,0.7,7.6,1.4,11.3,2.3c0.7,0.2,1.2,0.9,1.9,1.4
					c-0.7,0.4-1.4,0.9-2.2,1.1c-0.8,0.2-1.6-0.1-2.4-0.1c-3.1,0-5.9-1.4-9.2-0.4c-1.8,0.6-4.1-0.7-6.1-0.9c-2.5-0.3-5-0.5-7.5-0.4
					c-2,0.1-4.2,1.1-4.9-2c0-0.2-0.5-0.4-0.8-0.5c-5-0.8-8.6-4.3-12.4-7.2c-2.2-1.7-4.2-3.9-6-6.2c-4.4-5.5-4.6-11.2,0.1-16.4
					c4.3-4.7,4.6-9.6,3.4-15.3c-1.8-8.8,0.3-16.6,6.9-22.9c0.8-0.8,2.2-1,3.3-1.6c0.3-0.2,0.7-0.7,0.7-1.1c-0.2-2.3-0.4-4.6-0.7-6.9
					c-1.2-8.7,0.6-16.8,3.9-24.7c0.7-1.6,1.4-3.2,1.9-4.8c0.1-0.4-0.3-1.2-0.7-1.4c-3.1-1-5.6-2.5-7.2-5.6c-0.9-1.7-2.6-2.9-3.8-4.4
					c-4.9-6.7-5.8-14.1-3.8-21.9c2.9-11.8,9.6-20.7,20.9-25.8c5.7-2.6,11.4-2.6,17.5-1.5c10.3,1.8,16.5,8.3,20.9,17.3
					c0.2,0.4,1.2,0.8,1.6,0.6c10-3.6,20.3-5.8,31-5.9c4.8,0,9.5,0.1,14.3,0.3c1.3,0.1,2.6,0.8,3.8,1.3c1.3,0.6,2.3,0.9,3.1-0.9
					c1.3-3,4-4.7,6.4-6.8c3.2-2.7,6.5-4.9,10.4-6.2c8.7-2.8,17.6-3.9,26.6-1.7c6.7,1.6,11.7,6.2,15.3,11.9c4.8,7.7,7.5,16,7,25.3
					c-0.5,8.2-4.2,15-9.7,20.7c-1.9,2-5,2.7-7.4,4.2c-0.5,0.3-0.8,1.3-0.7,1.9c2.3,8.3,3.2,16.7,3.1,25.2
					c-0.1,6.1-1.4,11.9-4.4,17.3c-0.2,0.3-0.2,0.8-0.3,1.2c0.3,0,0.6,0,0.9,0c4.2-1,9.4,1.8,10.8,5.8c0.9,2.5,2,5,2.7,7.6
					c1.2,4.6,2.9,9.2,3.1,13.8c0.1,4.9,0,10.2-4.1,14.3c-2.5,2.6-4.4,5.8-6.4,8.9c-1.5,2.3-3.2,4.1-6.1,4.8c-1.1,0.3-2.2,1-3.1,1.7
					c-5.7,4.2-12.4,5.8-19.2,7.2c-3.6,0.7-7.3,1.2-10.9,1.4c-6.2,0.4-12.4,0.6-18.7,0.6c-2,0-4-1-6.1-1.5c-0.4-0.1-0.9,0.1-1.3,0.3
					c-3.6,2.1-7.6,1.9-11.5,2.1c-0.3,0-0.7-0.3-1.1-0.5c0.3-0.3,0.5-0.9,0.9-1c4.8-1.7,9.7-3.4,14.6-5c0.9-0.3,2-0.3,2.9-0.1
					c0.5,0.1,1.3,1.2,1.2,1.5c-0.9,1.9,0.5,1.6,1.4,1.5c10.8-1,21.7-0.7,32.5-3c8.3-1.8,15.3-5.7,21.6-11c2.3-2,3.3-5.6,5.6-7.5
					c5.1-4.2,4.5-9.8,4.6-15.2c0.2-6.8-3.5-12.8-4.9-19.2c-0.2-0.9-1.4-1.7-2.2-2.4c-1-0.8-2.2-1.2-3.1-2c-1.3-1.1-2.6-1.2-4-0.4
					c-0.2,0.1-0.5,0.4-0.7,0.3c-3.2-0.6-4.3,2.2-6.3,3.7c-3,2.1-6,4.1-9,6.1c-0.2,0.1-0.5,0.3-0.4,0.4c0.2,2.3-1.6,2.3-3,2.2
					c-4.4-0.3-8.8-0.7-13.2-1.2c-0.4,0-0.8-0.6-1.2-0.9c0.4-0.4,0.8-1,1.2-1c1.9,0,3.9,0.1,5.8,0.2c1.4,0.1,2.8,0.2,4.2,0.3
					c1.1,0,2.5,0.6,2.6-1.5c0-0.6,1.5-1.2,2.5-1.6c5.2-2,9.5-5.1,12.4-9.8c3.2-5.1,6.8-10.2,6.6-16.6c-0.1-4-0.6-7.9-0.9-11.9
					c-0.1-1.1,0.3-2.3,0.1-3.4c-2.3-10-4.2-20.1-11.7-27.9c-6.5-6.7-13.3-13.2-21.1-18.3c-1.5-0.9-2.9-1.9-4.2-3
					c-0.6-0.5-1-1.5-1.4-2.2c0.8-0.4,1.6-0.9,2.5-1.2c0.4-0.1,1,0.1,1.4,0.3c4,2.1,8.2,3.9,10.9,7.9c1,1.4,2.1,3,4.4,2.7
					c0.7-0.1,1.7,0.8,2.2,1.5c4.5,5.6,9,11.3,13.3,17c1.2,1.7,2,3.7,2.8,5.6c0.5,1.2,1.2,1.5,2.4,0.9c9.4-4.8,15.1-16,13.9-26.6
					c-0.8-7-3.4-13.3-7.1-19c-4.6-7-11.3-10.7-19.8-10.9C194.1,38.1,192.6,38.1,191.2,38.1z M49.9,70.5c0.2,5.2,0.5,9.6,3.5,13.1
					c2.2,2.5,4.9,4.6,7.4,6.9c0.9,0.8,1.6,1.9,2.4,2.8c0.2,0.3,0.3,0.7,0.5,1.1c0.4-0.3,0.9-0.4,1-0.8c0.9-1.8,1.7-3.6,2.7-5.4
					C75.7,74.4,87,64,102.2,58c1.8-0.7,1.8-1.4,0.9-2.8c-2.8-3.9-4.9-8.5-10.1-10.2c-3-0.9-5.7-2.4-8.7-3.2
					c-6.2-1.7-12.5-0.5-17.9,2.2C55.3,49.4,51,59.6,49.9,70.5z"/>
				<path class="st2" d="M163.7,134.2c0.8,7.9-3.4,12.5-8.8,16.4c-1.5,1.1-3.1,2.1-4.6,3.1c-0.2,0.2-0.5,0.4-0.7,0.6
					c0.2,0.1,0.5,0.2,0.7,0.3c4.8,0.8,9.6,1.7,14.4,2.5c0.6,0.1,1.1,0.4,1.7,0.6c-0.5,0.4-1.1,1.1-1.6,1.1c-4.1-0.2-8.2-0.3-12.2-1
					c-4.3-0.8-8.4-2.8-12.8-3.3c-6.1-0.7-11.9-2-17.4-4.8c-1.7-0.8-3.7-1-5.7-1.4c-3.1-0.7-6.2-1.3-9.4-1.9
					c-2.9-0.5-5.9-0.9-8.8-1.4c-1.3-0.2-2.8,0-4-0.5c-3.9-1.3-7.6-0.7-11.3,0.6c-1.4,0.5-2.9,0.8-4.4,1c-0.5,0.1-1-0.5-1.6-0.8
					c0.3-0.5,0.5-1.3,1-1.4c5.4-1.9,10.8-4.6,16.8-2c0.1,0,0.2,0.1,0.3,0.1c3.8,0.7,3.8,0.7,3.4-3.1c-0.9-8,2.8-14,8.6-19.1
					c6-5.2,13-7.5,20.8-8c6.6-0.5,12.9,0.7,18.9,3.4c0.6,0.3,1.2,0.8,1.9,0.9c4.6,0.9,7.8,3.7,10.8,7.2c2.4,2.7,3.8,5.4,3.8,8.9
					C163.7,133,163.7,133.9,163.7,134.2z M101.4,138.6c0.6,1.3,1,3.4,1.9,3.7c4.5,1.3,9.2,2,13.8,3.1c2.8,0.7,5.9,1,8.4,2.4
					c5.9,3.4,12.6,3,18.8,4.7c0.5,0.1,1.2,0,1.7-0.2c4.8-1.6,8.5-4.9,11.8-8.6c2.6-3,2.3-6.7,2.4-10.4c0.2-5.9-4.1-8.8-7.6-11.7
					c-2.9-2.4-7-3.4-10.7-4.5c-3.3-1-6.9-1.9-10.3-1.8c-5,0.1-9.9,0.6-14.8,2.5C108.4,121,102,129.4,101.4,138.6z"/>
				<path class="st2" d="M126,212.4c-6.3-1.3-12.6-2.7-19-3.9c-1-0.2-2,0.3-3.1,0.5c-1.9,0.4-3.9,0.9-5.8,1c-0.7,0-1.5-1.1-2.2-1.7
					c0.7-0.4,1.4-1,2.1-1.3c5.2-1.9,10.3-0.9,15.5,0.3c5.5,1.2,11.3,1.3,16.9,1.9c0.4,0,0.8-0.1,1.1,0.1c0.7,0.3,1.3,0.7,2,1
					c-0.6,0.4-1.2,0.9-1.8,1c-1.9,0.3-3.8,0.5-5.6,0.7C126.1,212.1,126,212.3,126,212.4z"/>
				<path class="st2" d="M88.2,114.9c-3.3,0-4.5-2-3.2-5c1.2-2.7,2.9-5,6-5.4c1.2-0.2,3.1,0.4,3.8,1.3c0.8,1.1,1.2,3.3,0.6,4.4
					C94,113,91.6,114.9,88.2,114.9z"/>
				<path class="st2" d="M172.1,109.7c-0.9,1.2-1.5,2.8-2.6,3.6c-1.7,1-3.5,0.1-4.8-1.3c-1-1.1-2-2.3-2.7-3.6
					c-1-1.9-0.5-3.6,1.2-4.9c1.6-1.2,3.4-1.2,5,0c1.9,1.5,3.9,2.9,3.3,5.8C171.7,109.4,171.9,109.5,172.1,109.7z"/>
				<path class="st2" d="M141.5,140.5c-4.9-0.7-8.6-1.6-11.6-4.4c-0.3-0.3-1.5-0.2-1.8,0.1c-4.7,5.3-13.3,7.5-19.8,0
					c-1.3-1.5-1.3-4-1.7-6.1c-0.1-0.4,0.9-1,1.4-1.5c0.5,0.5,1.3,1,1.3,1.5c0.9,6.6,9.2,9.5,14.5,5.2c1.1-0.9,2.3-1.8,3.3-2.9
					c0.4-0.4,0.6-1.3,0.5-1.9c-0.1-0.4-0.8-0.6-1.3-0.9c-0.1-0.1-0.3,0-0.5-0.1c-2.1-0.5-4.4-1.1-4.7-3.6c-0.3-2.4,1.8-3.3,3.6-3.9
					c2.2-0.7,4.4-1.2,6.7-1.7c0.6-0.1,1.4,0,1.9,0.3c1.4,1.1,3.1,2.2,3.6,3.7c0.3,0.8-1.4,2.4-2.4,3.6c-0.5,0.6-1.4,1-2.1,1.1
					c-2.3,0.4-1.8,1.7-1.1,3.1c1.4,2.7,7.5,5.1,10.7,4.3c3.6-1,6.7-2.5,8.2-6.2c0.2-0.6,1.3-0.8,2-1.2c0.3,0.7,1,1.5,0.9,2.2
					c-0.4,2.9-2,5.2-4.4,6.5C146.3,138.9,143.5,139.7,141.5,140.5z"/>
			</g>
		</g>
	</g>
	<g>
		<g>
			<path class="st2" d="M10.7,188.9c-0.5,0.3-0.9,0.6-1.1,1.1c-0.2,0.5-0.3,1-0.2,1.6c0,0.6,0.1,1.2,0.3,1.9c0.1,0.7,0.3,1.3,0.4,2
				s0.2,1.4,0.1,2c0,0.7-0.2,1.3-0.5,1.8c-0.3,0.6-0.8,1-1.6,1.5c-0.8,0.5-1.7,0.7-2.6,0.6c-0.9-0.1-1.7-0.4-2.5-1
				c-0.8-0.6-1.4-1.3-1.9-2.2c-0.7-1.2-1-2.3-1-3.3c0-1,0.1-1.9,0.4-2.6c0.1-0.3,0.2-0.5,0.4-0.7c0.2-0.2,0.3-0.4,0.5-0.5
				c0.3-0.2,0.7-0.2,1.1-0.2c0.4,0.1,0.7,0.3,0.9,0.8c0.2,0.3,0.2,0.7,0.1,1.1c-0.1,0.4-0.4,0.6-0.7,0.8c-0.2,0.1-0.4,0.2-0.7,0.2
				c-0.1,0-0.2,0.1-0.2,0.2c-0.1,0.5-0.1,1.1,0,1.6c0.1,0.5,0.3,1.1,0.6,1.5c0.3,0.6,0.8,1.1,1.3,1.6c0.5,0.4,1.1,0.7,1.7,0.8
				c0.6,0.1,1.2,0,1.7-0.3c0.5-0.3,0.8-0.6,1-1.1c0.2-0.5,0.2-1,0.2-1.6s-0.1-1.2-0.3-1.9c-0.1-0.7-0.2-1.3-0.4-2
				c-0.1-0.7-0.1-1.3-0.1-2c0-0.6,0.2-1.2,0.5-1.8c0.3-0.5,0.8-1,1.5-1.4c1-0.6,1.9-0.8,2.8-0.7c0.9,0.1,1.6,0.5,2.3,1.1
				c0.7,0.6,1.2,1.3,1.7,2c0.4,0.8,0.7,1.5,0.9,2.3c0.2,0.8,0.2,1.5,0.1,2.1s-0.4,1.1-0.9,1.4c-0.3,0.2-0.7,0.2-1.1,0.1
				s-0.7-0.3-0.9-0.7c-0.2-0.3-0.2-0.7-0.1-1.1c0.1-0.4,0.3-0.7,0.7-0.9c0.1,0,0.1-0.1,0.2-0.1s0.1,0,0.2-0.1c0.1,0,0.2-0.1,0.2-0.1
				c0-0.2,0-0.5-0.2-1c-0.1-0.4-0.3-0.9-0.6-1.3c-0.3-0.5-0.6-0.9-1-1.3c-0.4-0.4-0.9-0.6-1.4-0.8C11.9,188.5,11.3,188.6,10.7,188.9
				z"/>
			<path class="st2" d="M17.2,218.7c0.2,0.2,0.3,0.4,0.2,0.7c0,0.3-0.2,0.5-0.4,0.6c-0.2,0.2-0.4,0.2-0.7,0.2
				c-0.3,0-0.5-0.2-0.6-0.4c-0.2-0.4-0.4-0.7-0.6-1s-0.4-0.6-0.6-0.9c-0.2-0.2-0.4-0.5-0.6-0.7c-0.2-0.3-0.5-0.5-0.7-0.8
				c-0.2-0.2-0.2-0.4-0.2-0.7c0-0.3,0.1-0.5,0.4-0.6c0.2-0.2,0.4-0.2,0.7-0.2c0.3,0,0.5,0.2,0.6,0.4c0.1,0.2,0.2,0.3,0.3,0.5
				c0.1,0.2,0.2,0.4,0.3,0.6c0.1,0.1,0.2,0.1,0.3,0l4.8-3.6c0.1-0.1,0.1-0.2,0-0.3l-5.2-6.9c-0.1-0.1-0.2-0.1-0.3,0l-4.8,3.6
				c-0.1,0.1-0.1,0.2,0,0.3c0.2,0.2,0.3,0.3,0.4,0.5c0.1,0.2,0.3,0.3,0.4,0.5c0.2,0.2,0.3,0.4,0.2,0.7c0,0.3-0.2,0.5-0.4,0.6
				c-0.2,0.2-0.4,0.2-0.7,0.2c-0.3,0-0.5-0.2-0.6-0.4c-0.2-0.4-0.4-0.7-0.6-1c-0.2-0.3-0.4-0.6-0.6-0.9c-0.2-0.2-0.4-0.5-0.6-0.7
				c-0.2-0.3-0.5-0.5-0.7-0.8c-0.2-0.2-0.2-0.4-0.2-0.7c0-0.3,0.1-0.5,0.4-0.6c0.2-0.2,0.4-0.2,0.7-0.2s0.5,0.2,0.6,0.4
				c0.1,0.2,0.3,0.5,0.4,0.7l0,0c0.1,0.1,0.1,0.1,0.2,0l10.8-8.1c0.1-0.1,0.1-0.2,0-0.3c-0.2-0.2-0.3-0.4-0.5-0.6
				c-0.2-0.2-0.2-0.4-0.2-0.7s0.1-0.5,0.4-0.6c0.2-0.2,0.4-0.2,0.7-0.2s0.5,0.2,0.6,0.4c0.2,0.4,0.4,0.7,0.6,1
				c0.2,0.3,0.4,0.6,0.6,0.8c0.2,0.2,0.4,0.5,0.6,0.7c0.2,0.3,0.5,0.5,0.7,0.8c0.2,0.2,0.3,0.4,0.2,0.7c0,0.3-0.2,0.5-0.4,0.6
				c-0.2,0.2-0.4,0.2-0.7,0.2c-0.3,0-0.5-0.2-0.6-0.4c-0.1-0.2-0.2-0.4-0.3-0.5c-0.1-0.2-0.2-0.4-0.4-0.5c-0.1-0.1-0.2-0.1-0.3,0
				l-4.3,3.2c-0.1,0.1-0.1,0.2,0,0.3l5.2,6.9c0.1,0.1,0.2,0.1,0.3,0l4.3-3.2c0.1-0.1,0.1-0.2,0-0.3c-0.1-0.2-0.3-0.3-0.4-0.5
				c-0.1-0.2-0.3-0.3-0.4-0.5c-0.2-0.2-0.2-0.4-0.2-0.7c0-0.3,0.1-0.5,0.4-0.6c0.2-0.2,0.4-0.2,0.7-0.2s0.5,0.2,0.6,0.4
				c0.2,0.4,0.4,0.7,0.6,1c0.2,0.3,0.4,0.6,0.6,0.8c0.2,0.2,0.4,0.5,0.6,0.7c0.2,0.3,0.5,0.5,0.7,0.8c0.2,0.2,0.3,0.4,0.2,0.7
				c0,0.3-0.2,0.5-0.4,0.6c-0.2,0.2-0.4,0.2-0.7,0.2c-0.3,0-0.5-0.2-0.6-0.4c-0.1-0.2-0.3-0.5-0.4-0.7l0,0c-0.1-0.1-0.1-0.1-0.2,0
				l-10.8,8.1c-0.1,0.1-0.1,0.2,0,0.3C16.9,218.3,17,218.5,17.2,218.7z"/>
			<path class="st2" d="M24.6,226.6c0.2,0.2,0.3,0.4,0.3,0.7c0,0.3-0.1,0.5-0.3,0.7c-0.2,0.2-0.4,0.3-0.7,0.2
				c-0.3,0-0.5-0.1-0.6-0.3c-0.3-0.3-0.5-0.7-0.8-1s-0.5-0.6-0.7-0.8c-0.2-0.2-0.5-0.5-0.7-0.7c-0.3-0.2-0.5-0.5-0.9-0.8
				c-0.2-0.2-0.3-0.4-0.3-0.7c0-0.3,0.1-0.5,0.3-0.7s0.4-0.3,0.7-0.2c0.3,0,0.5,0.1,0.6,0.3c0.1,0.1,0.2,0.3,0.3,0.4
				c0.1,0.2,0.3,0.3,0.4,0.5l0,0c0.1,0.1,0.2,0.1,0.2,0l9.9-9.3c0.1-0.1,0.1-0.2,0-0.2c-0.1-0.1-0.3-0.3-0.4-0.4
				c-0.2-0.1-0.3-0.3-0.5-0.4c-0.2-0.2-0.3-0.4-0.3-0.7c0-0.3,0.1-0.5,0.3-0.7c0.2-0.2,0.4-0.3,0.7-0.2c0.3,0,0.5,0.1,0.6,0.3
				c0.3,0.4,0.5,0.7,0.8,1c0.2,0.3,0.5,0.6,0.7,0.8c0.2,0.2,0.5,0.5,0.7,0.7c0.3,0.2,0.5,0.5,0.9,0.8c0.2,0.2,0.3,0.4,0.3,0.7
				c0,0.3-0.1,0.5-0.3,0.7c-0.2,0.2-0.4,0.3-0.7,0.2c-0.3,0-0.5-0.1-0.6-0.3c-0.1-0.1-0.2-0.3-0.3-0.4c-0.1-0.1-0.2-0.3-0.4-0.4l0,0
				c-0.1-0.1-0.2-0.1-0.2,0l-9.9,9.3c-0.1,0.1-0.1,0.2,0,0.3c0.1,0.1,0.3,0.3,0.4,0.4C24.3,226.4,24.5,226.5,24.6,226.6z"/>
			<path class="st2" d="M39.3,240c0.2,0.1,0.3,0.4,0.4,0.6s0,0.5-0.2,0.7s-0.4,0.3-0.7,0.3c-0.3,0-0.5-0.1-0.7-0.3
				c0-0.1-0.2-0.2-0.5-0.6c-0.3-0.3-0.6-0.6-0.9-0.9c-0.5-0.4-0.6-0.9-0.6-1.5l0.9-7c0-0.1,0-0.2-0.1-0.3l-2.3-2
				c-0.1-0.1-0.2-0.1-0.3,0l-3.2,3.7c-0.1,0.1-0.1,0.2,0,0.3c0.2,0.1,0.4,0.2,0.5,0.4c0.2,0.1,0.3,0.2,0.5,0.4
				c0.2,0.1,0.3,0.4,0.4,0.6c0,0.3-0.1,0.5-0.2,0.7c-0.2,0.2-0.4,0.3-0.6,0.3c-0.3,0-0.5-0.1-0.7-0.3c-0.3-0.3-0.6-0.6-0.8-0.8
				c-0.2-0.2-0.5-0.5-0.7-0.7c-0.2-0.2-0.5-0.4-0.8-0.6c-0.3-0.2-0.6-0.4-1-0.7c-0.2-0.2-0.3-0.4-0.4-0.6c0-0.3,0-0.5,0.2-0.7
				s0.4-0.3,0.6-0.3c0.2,0,0.5,0.1,0.6,0.2c0.1,0.1,0.2,0.2,0.3,0.3c0.1,0.1,0.2,0.2,0.3,0.3l0,0c0.1,0.1,0.2,0.1,0.2,0l8.8-10.2
				c0.1-0.1,0.1-0.2,0-0.2c-0.1-0.1-0.2-0.2-0.4-0.3c-0.1-0.1-0.3-0.2-0.4-0.3c-0.2-0.2-0.3-0.4-0.3-0.6s0.1-0.5,0.2-0.7
				c0.2-0.2,0.4-0.3,0.7-0.3s0.5,0.1,0.7,0.3c0.2,0.2,0.4,0.5,0.7,0.7c0.2,0.3,0.5,0.5,0.7,0.7l3.2,2.8c1.5,1.3,2.4,2.7,2.6,4
				c0.3,1.4-0.1,2.7-1.2,3.9c-0.9,1.1-1.9,1.6-3,1.7c-1.1,0.1-2.2-0.2-3.3-0.7c-0.1-0.1-0.2,0-0.3,0.1l-0.8,6.1c0,0.1,0,0.2,0.1,0.3
				c0.2,0.2,0.4,0.3,0.7,0.5C38.8,239.7,39.1,239.9,39.3,240z M42.8,225.1l-2.6-2.3c-0.1-0.1-0.2-0.1-0.3,0l-4.1,4.7
				c-0.1,0.1-0.1,0.2,0,0.3l2.6,2.3c1,0.9,2,1.4,2.9,1.5c0.9,0.1,1.8-0.3,2.5-1.2c0.6-0.6,0.8-1.3,0.9-1.9c0-0.6-0.2-1.2-0.5-1.8
				S43.4,225.6,42.8,225.1z"/>
			<path class="st2" d="M58.3,234.2c1,0.6,1.7,1.4,2.4,2.3c0.6,0.9,1,1.9,1.2,3s0.2,2.2,0,3.3c-0.2,1.1-0.6,2.2-1.3,3.2
				c-0.6,1-1.4,1.8-2.4,2.5c-0.9,0.7-1.9,1.1-3,1.4c-1.1,0.3-2.1,0.3-3.2,0.1c-1.1-0.2-2.1-0.6-3.1-1.2c-1-0.6-1.7-1.4-2.4-2.3
				c-0.6-0.9-1-1.9-1.2-3c-0.2-1.1-0.2-2.2,0-3.3c0.2-1.1,0.6-2.2,1.3-3.2c0.6-1,1.4-1.8,2.4-2.5c0.9-0.7,1.9-1.1,3-1.4
				s2.1-0.3,3.2-0.1C56.3,233.2,57.4,233.6,58.3,234.2z M50,247.3c1,0.7,2.1,1,3.2,1c1.1,0,2.2-0.2,3.2-0.8c1-0.6,1.9-1.4,2.6-2.5
				c0.7-1.1,1.1-2.3,1.2-3.4c0.1-1.2-0.1-2.3-0.6-3.3c-0.5-1-1.3-1.9-2.3-2.5c-1.1-0.7-2.2-1-3.3-1c-1.1,0-2.2,0.3-3.3,0.8
				c-1,0.6-1.9,1.4-2.6,2.5c-0.7,1.1-1.1,2.3-1.2,3.4c-0.1,1.2,0.1,2.3,0.6,3.3C48.2,245.8,48.9,246.7,50,247.3z"/>
			<path class="st2" d="M74.7,260.1c0.3,0.1,0.4,0.2,0.5,0.5c0.1,0.2,0.1,0.5,0,0.7c-0.1,0.2-0.3,0.4-0.5,0.5
				c-0.2,0.1-0.5,0.1-0.7-0.1c-0.4-0.2-0.8-0.4-1.1-0.6c-0.3-0.2-0.6-0.3-0.9-0.5c-0.3-0.1-0.6-0.3-0.9-0.4s-0.7-0.2-1.1-0.4
				c-0.2-0.1-0.4-0.3-0.5-0.5s-0.1-0.5,0-0.7c0.1-0.2,0.3-0.4,0.5-0.5c0.2-0.1,0.5-0.1,0.7,0c0.1,0.1,0.3,0.1,0.4,0.2
				c0.2,0.1,0.3,0.2,0.4,0.3l0,0c0.1,0,0.1,0,0.2,0s0-0.1,0-0.2l-1.3-8.1c0-0.1-0.1-0.2-0.2-0.1l-3.6,1.2c-0.1,0-0.2,0.1-0.2,0.2
				l-1.7,3.7c-0.1,0.1,0,0.2,0.1,0.3c0.2,0.1,0.5,0.1,0.7,0.2c0.2,0.1,0.4,0.2,0.6,0.2c0.2,0.1,0.4,0.3,0.5,0.5
				c0.1,0.2,0.1,0.4,0,0.7c-0.1,0.2-0.3,0.4-0.5,0.5c-0.2,0.1-0.5,0.1-0.7-0.1c-0.4-0.2-0.7-0.4-1-0.6c-0.3-0.2-0.6-0.3-0.9-0.4
				c-0.3-0.1-0.6-0.2-0.9-0.4c-0.3-0.1-0.7-0.2-1.1-0.4c-0.2-0.1-0.4-0.3-0.5-0.5c-0.1-0.2-0.1-0.5,0-0.7c0.1-0.2,0.3-0.4,0.5-0.5
				c0.2-0.1,0.5-0.1,0.7,0.1l0.7,0.4c0.1,0.1,0.2,0,0.3-0.1l5.6-12.3c0.1-0.1,0-0.2-0.1-0.3l-0.7-0.3c-0.2-0.1-0.4-0.3-0.5-0.5
				c-0.1-0.2-0.1-0.5,0-0.7c0.1-0.2,0.3-0.4,0.5-0.5c0.2-0.1,0.5-0.1,0.7,0.1c0.4,0.2,0.7,0.4,1,0.6c0.3,0.2,0.6,0.3,0.9,0.4
				c0.3,0.1,0.6,0.2,0.9,0.4c0.3,0.1,0.7,0.2,1.1,0.4c0.3,0.1,0.4,0.2,0.5,0.5c0.1,0.2,0.1,0.5,0,0.7c-0.1,0.2-0.3,0.4-0.5,0.5
				s-0.5,0.1-0.7-0.1c-0.2-0.1-0.3-0.2-0.5-0.3c-0.2-0.1-0.4-0.2-0.6-0.3c-0.1-0.1-0.2,0-0.3,0.1l-2.7,6c0,0.1,0,0.1,0,0.2
				c0,0,0.1,0,0.2,0l9.3-3.1c0.1,0,0.1-0.1,0.1-0.1c0-0.1,0-0.1-0.1-0.2c-0.2-0.1-0.4-0.1-0.6-0.2s-0.4-0.1-0.5-0.2
				c-0.2-0.1-0.4-0.3-0.5-0.5s-0.1-0.5,0-0.7c0.1-0.2,0.3-0.4,0.5-0.5c0.3-0.1,0.5-0.1,0.7,0.1c0.4,0.2,0.8,0.4,1.1,0.6
				c0.3,0.2,0.6,0.3,0.9,0.5c0.3,0.1,0.6,0.3,1,0.4c0.3,0.1,0.7,0.3,1.1,0.4c0.3,0.1,0.4,0.2,0.5,0.5c0.1,0.2,0.1,0.5,0,0.7
				c-0.1,0.2-0.3,0.4-0.5,0.5c-0.2,0.1-0.5,0.1-0.7,0c-0.1,0-0.1-0.1-0.2-0.1c-0.1,0-0.1-0.1-0.2-0.1l-0.1,0c-0.1,0-0.1,0-0.2,0
				l-7.3,2.4c-0.1,0-0.2,0.1-0.1,0.3l1.5,9.7c0,0.1,0.1,0.2,0.2,0.2c0.2,0,0.3,0.1,0.5,0.2C74.4,260,74.6,260.1,74.7,260.1z"/>
			<path class="st2" d="M97.3,250.9c0.3,0,0.5,0.2,0.6,0.4s0.2,0.5,0.1,0.7s-0.2,0.4-0.5,0.5c-0.2,0.1-0.5,0.1-0.7,0
				c-0.1-0.1-0.3-0.1-0.4-0.2s-0.3-0.1-0.5-0.2l0,0c-0.1,0-0.2,0-0.2,0.2l-2.6,8.6c-0.4,1.3-0.9,2.3-1.6,3.1
				c-0.7,0.8-1.6,1.3-2.6,1.6s-2,0.2-3.2-0.1c-1.3-0.4-2.3-1-2.9-1.8c-0.6-0.8-1-1.8-1.1-2.8s0-2.1,0.3-3.2l2.6-8.6
				c0-0.1,0-0.2-0.1-0.2c-0.2,0-0.3-0.1-0.5-0.1c-0.2,0-0.3-0.1-0.5-0.1c-0.3-0.1-0.5-0.2-0.6-0.4c-0.1-0.2-0.2-0.5-0.1-0.7
				s0.2-0.4,0.5-0.6s0.5-0.1,0.7,0c0.4,0.2,0.8,0.3,1.1,0.4c0.3,0.1,0.6,0.2,0.9,0.3c0.3,0.1,0.6,0.2,0.9,0.2
				c0.3,0.1,0.7,0.2,1.2,0.2c0.3,0,0.5,0.2,0.6,0.4s0.1,0.5,0.1,0.7s-0.2,0.4-0.5,0.6s-0.5,0.1-0.7,0c-0.2-0.1-0.3-0.1-0.5-0.2
				c-0.2-0.1-0.4-0.1-0.6-0.2l0,0c-0.1,0-0.2,0-0.2,0.1l-2.6,8.7c-0.1,0.2-0.1,0.5-0.2,0.9c-0.1,0.4-0.1,0.8-0.1,1.3
				c0,0.5,0.1,0.9,0.3,1.4c0.2,0.5,0.5,0.9,0.9,1.3c0.4,0.4,1,0.7,1.7,0.9c0.7,0.2,1.4,0.3,1.9,0.2c0.5-0.1,1-0.3,1.4-0.6
				c0.4-0.3,0.7-0.6,1-1c0.2-0.4,0.4-0.7,0.6-1.1c0.1-0.4,0.3-0.6,0.3-0.8l2.6-8.7c0-0.1,0-0.2-0.1-0.2c-0.2-0.1-0.4-0.1-0.6-0.2
				s-0.4-0.1-0.6-0.1c-0.2-0.1-0.4-0.2-0.6-0.4s-0.2-0.5-0.1-0.7s0.2-0.4,0.5-0.6c0.2-0.1,0.5-0.1,0.7,0c0.4,0.2,0.8,0.3,1.1,0.4
				s0.6,0.2,0.9,0.3c0.3,0.1,0.6,0.2,0.9,0.2C96.5,250.8,96.9,250.9,97.3,250.9z"/>
			<path class="st2" d="M116.4,270c0.3,0,0.5,0.1,0.6,0.3c0.2,0.2,0.2,0.4,0.2,0.7c0,0.3-0.2,0.5-0.4,0.6c-0.2,0.1-0.5,0.2-0.7,0.1
				c-0.4-0.1-0.8-0.2-1.1-0.3c-0.3-0.1-0.6-0.1-0.9-0.2c-0.3,0-0.6-0.1-0.9-0.1c-0.3,0-0.7-0.1-1.2-0.1c-0.3,0-0.5-0.1-0.6-0.3
				c-0.2-0.2-0.2-0.4-0.2-0.7c0-0.3,0.2-0.5,0.4-0.6c0.2-0.2,0.4-0.2,0.7-0.1c0.2,0,0.4,0.1,0.6,0.1c0.2,0,0.4,0.1,0.6,0.2
				c0.1,0,0.2,0,0.2-0.2l1.9-12.4c0-0.1,0-0.2-0.1-0.2c-0.1,0-0.1,0-0.2,0.1l-6.7,10.7c-0.1,0.2-0.3,0.3-0.5,0.4
				c-0.2,0.1-0.4,0.1-0.7,0.1c-0.2,0-0.4-0.1-0.6-0.3c-0.2-0.2-0.3-0.4-0.3-0.6l-2.9-12.3c0-0.1,0-0.1-0.1-0.2c-0.1,0-0.1,0-0.1,0.2
				l-1.9,12.4c0,0.1,0,0.2,0.2,0.2c0.2,0,0.4,0,0.7,0s0.4,0,0.6,0c0.3,0,0.5,0.1,0.6,0.3c0.2,0.2,0.2,0.4,0.2,0.7
				c0,0.3-0.2,0.5-0.4,0.6s-0.4,0.2-0.7,0.1c-0.4-0.1-0.8-0.2-1.1-0.3c-0.3-0.1-0.6-0.1-0.9-0.2s-0.6-0.1-1-0.1s-0.7-0.1-1.2-0.1
				c-0.3,0-0.5-0.1-0.6-0.3c-0.2-0.2-0.2-0.4-0.2-0.7s0.2-0.5,0.4-0.6c0.2-0.2,0.5-0.2,0.7-0.1l0.7,0.2l0,0c0.1,0,0.2,0,0.2-0.2
				l2-13.3c0-0.2,0-0.2-0.2-0.2c-0.1,0-0.3,0-0.4,0c-0.1,0-0.3,0-0.4,0c-0.2,0-0.4-0.2-0.6-0.4c-0.1-0.2-0.2-0.4-0.2-0.7
				c0-0.3,0.2-0.5,0.4-0.6c0.2-0.1,0.5-0.2,0.7-0.1c0.5,0.1,0.9,0.2,1.2,0.3s0.7,0.2,1,0.2c0.4,0.1,0.7,0.2,1,0.5
				c0.3,0.3,0.5,0.6,0.6,1l2.6,11.7c0,0.1,0.1,0.2,0.1,0.2c0.1,0,0.1,0,0.2-0.1l6.3-10.3c0.2-0.3,0.5-0.6,0.9-0.8s0.8-0.2,1.2-0.2
				c0.4,0.1,0.7,0.1,1.1,0.1c0.3,0,0.7,0,1.2,0c0.3,0,0.5,0.1,0.7,0.3c0.2,0.2,0.2,0.5,0.2,0.7c0,0.3-0.2,0.5-0.4,0.6
				c-0.2,0.1-0.5,0.2-0.7,0.1l-0.7-0.2l0,0c-0.1,0-0.2,0-0.2,0.2l-2,13.4c0,0.2,0,0.2,0.2,0.2L116.4,270z"/>
			<path class="st2" d="M139.3,270.9c0.3,0,0.5,0.1,0.7,0.2c0.2,0.2,0.3,0.4,0.3,0.7c0,0.3-0.1,0.5-0.3,0.7
				c-0.2,0.2-0.4,0.2-0.7,0.2c-0.9-0.1-1.6-0.2-2.1-0.2c-0.6,0-1.3,0-2.1,0.1c-0.3,0-0.5-0.1-0.7-0.3c-0.2-0.2-0.3-0.4-0.3-0.7
				c0-0.3,0.1-0.5,0.3-0.7c0.2-0.2,0.4-0.3,0.7-0.2c0.2,0,0.3,0,0.5,0.1c0.2,0,0.4,0,0.5,0.1l0,0c0.2,0,0.2-0.1,0.1-0.2l-1.2-2.7
				c0-0.1-0.1-0.2-0.2-0.2l-8.2-0.2c-0.1,0-0.2,0-0.2,0.2l-1.3,2.7c0,0,0,0.1,0,0.1c0,0.1,0,0.1,0.1,0.1c0.2,0,0.4,0,0.6,0
				s0.4,0,0.5,0c0.3,0,0.5,0.1,0.7,0.2c0.2,0.2,0.3,0.4,0.3,0.7c0,0.3-0.1,0.5-0.3,0.7s-0.4,0.2-0.7,0.2c-0.9-0.1-1.6-0.2-2.1-0.2
				c-0.6,0-1.3,0-2.1,0.1c-0.3,0-0.5-0.1-0.7-0.3c-0.2-0.2-0.3-0.4-0.3-0.7c0-0.3,0.1-0.5,0.3-0.7c0.2-0.2,0.4-0.3,0.7-0.2
				c0.3,0.1,0.6,0.1,0.9,0.1l0,0c0.1,0,0.1,0,0.2-0.1l7.1-14.9c0.1-0.3,0.4-0.4,0.7-0.4c0.3,0,0.5,0.2,0.7,0.5l6.4,15.2
				c0.1,0.1,0.1,0.2,0.3,0.1C138.8,270.9,139.1,270.9,139.3,270.9z M131.2,258.5c0-0.1-0.1-0.1-0.1-0.1c0,0-0.1,0-0.1,0.1l-3.4,7.2
				c0,0,0,0.1,0,0.1c0,0.1,0.1,0.2,0.2,0.2l6.4,0.2c0.2,0,0.2-0.1,0.2-0.3L131.2,258.5z"/>
			<path class="st2" d="M145.9,259.3c0,0.6,0.2,1.1,0.5,1.4c0.3,0.4,0.8,0.6,1.3,0.9c0.6,0.2,1.2,0.4,1.8,0.5s1.3,0.3,2,0.5
				c0.7,0.2,1.3,0.4,1.9,0.7c0.6,0.3,1.1,0.7,1.4,1.3c0.4,0.5,0.6,1.2,0.7,2c0.1,1-0.1,1.8-0.6,2.6c-0.5,0.8-1.1,1.4-1.9,1.8
				c-0.8,0.5-1.8,0.7-2.8,0.8c-1.4,0.1-2.5,0-3.5-0.5c-0.9-0.4-1.7-0.9-2.2-1.4c-0.2-0.2-0.4-0.4-0.5-0.6c-0.1-0.2-0.2-0.5-0.2-0.7
				c0-0.4,0.1-0.7,0.3-1c0.2-0.3,0.6-0.5,1.1-0.5c0.4,0,0.7,0.1,1,0.4c0.3,0.3,0.4,0.6,0.5,0.9c0,0.2,0,0.5-0.1,0.7
				c0,0.1,0,0.2,0.1,0.3c0.4,0.3,0.9,0.5,1.5,0.7c0.5,0.1,1.1,0.2,1.6,0.1c0.7-0.1,1.4-0.2,2-0.5c0.6-0.3,1.1-0.7,1.5-1.2
				c0.4-0.5,0.5-1,0.5-1.7c0-0.6-0.2-1-0.6-1.3s-0.8-0.6-1.4-0.8c-0.6-0.2-1.2-0.4-1.8-0.5s-1.3-0.3-2-0.5s-1.3-0.4-1.8-0.7
				c-0.6-0.3-1-0.7-1.4-1.2c-0.4-0.5-0.6-1.1-0.6-1.9c-0.1-1.2,0.1-2.1,0.6-2.8s1.1-1.3,1.9-1.7c0.8-0.4,1.7-0.6,2.6-0.7
				c0.9-0.1,1.7,0,2.5,0.2c0.8,0.2,1.4,0.5,2,0.8s0.8,0.8,0.9,1.4c0,0.4-0.1,0.7-0.3,1c-0.2,0.3-0.6,0.5-1,0.5c-0.4,0-0.7-0.1-1-0.3
				c-0.3-0.3-0.5-0.6-0.5-1c0-0.1,0-0.1,0-0.2c0-0.1,0-0.1,0-0.2c0-0.1,0-0.2,0-0.2c-0.2-0.1-0.5-0.2-1-0.3c-0.4-0.1-0.9-0.1-1.4,0
				c-0.5,0-1.1,0.2-1.6,0.4c-0.5,0.2-0.9,0.5-1.3,0.9S145.9,258.6,145.9,259.3z"/>
			<path class="st2" d="M177.4,265.7c0.3-0.1,0.5-0.1,0.7,0.1c0.2,0.1,0.4,0.3,0.4,0.6c0.1,0.3,0,0.5-0.2,0.7s-0.4,0.3-0.6,0.4
				c-0.9,0.1-1.6,0.2-2.1,0.3c-0.6,0.1-1.3,0.3-2.1,0.6c-0.3,0.1-0.5,0-0.7-0.1c-0.2-0.1-0.4-0.3-0.4-0.6c-0.1-0.3,0-0.5,0.1-0.7
				s0.3-0.3,0.6-0.4c0.2,0,0.3,0,0.5-0.1c0.2,0,0.4,0,0.5-0.1l0,0c0.2,0,0.2-0.1,0.1-0.2l-1.7-2.4c-0.1-0.1-0.2-0.1-0.3-0.1l-8,1.6
				c-0.1,0-0.2,0.1-0.2,0.2l-0.7,2.9c0,0,0,0.1,0,0.1c0,0.1,0.1,0.1,0.2,0.1c0.2,0,0.4-0.1,0.5-0.1s0.4-0.1,0.5-0.2
				c0.3-0.1,0.5-0.1,0.7,0.1s0.4,0.3,0.4,0.6s0,0.5-0.1,0.7s-0.3,0.3-0.6,0.4c-0.9,0.1-1.6,0.2-2.1,0.3c-0.6,0.1-1.3,0.3-2.1,0.6
				c-0.3,0.1-0.5,0-0.7-0.1c-0.2-0.1-0.4-0.3-0.4-0.6s0-0.5,0.1-0.7s0.4-0.3,0.6-0.4c0.3,0,0.6,0,0.9-0.1l0,0c0.1,0,0.1-0.1,0.2-0.2
				l3.6-16.1c0.1-0.3,0.3-0.5,0.6-0.6c0.3-0.1,0.6,0,0.7,0.3l9.7,13.4c0.1,0.1,0.2,0.1,0.3,0.1C176.9,265.9,177.1,265.8,177.4,265.7
				z M166.7,255.5c0-0.1-0.1-0.1-0.2-0.1c0,0-0.1,0.1-0.1,0.2l-1.7,7.7c0,0,0,0.1,0,0.1c0,0.1,0.1,0.1,0.2,0.1l6.3-1.3
				c0.2,0,0.2-0.1,0.1-0.3L166.7,255.5z"/>
			<path class="st2" d="M191.5,244.4c0.2-0.1,0.5-0.1,0.7,0s0.4,0.3,0.5,0.5s0.1,0.5,0,0.7c-0.1,0.2-0.3,0.4-0.5,0.5l-0.8,0.2l0,0
				c-0.1,0-0.1,0.1-0.1,0.2l4.9,13.3c0.1,0.3,0.1,0.6,0,0.8c-0.1,0.3-0.3,0.5-0.6,0.6c-0.5,0.2-0.9,0.1-1.3-0.2l-12.3-9.2
				c-0.1-0.1-0.1-0.1-0.2-0.1c-0.1,0-0.1,0.1,0,0.2l4,10.9c0,0.1,0.1,0.2,0.3,0.1c0.2-0.1,0.4-0.2,0.6-0.3s0.4-0.2,0.6-0.3
				c0.2-0.1,0.5-0.1,0.7,0c0.2,0.1,0.4,0.3,0.5,0.5c0.1,0.2,0.1,0.5,0,0.7c-0.1,0.2-0.3,0.4-0.6,0.5c-0.4,0.1-0.8,0.2-1.1,0.3
				s-0.6,0.2-0.9,0.3c-0.3,0.1-0.6,0.2-0.9,0.4c-0.3,0.1-0.7,0.3-1.1,0.5c-0.2,0.1-0.5,0.1-0.7,0c-0.2-0.1-0.4-0.3-0.5-0.5
				c-0.1-0.2-0.1-0.5,0-0.7c0.1-0.2,0.3-0.4,0.5-0.4l0.8-0.2l0,0c0.1,0,0.1-0.1,0.1-0.2l-4.6-12.6c0-0.1-0.1-0.2-0.2-0.1
				c-0.1,0-0.2,0.1-0.4,0.2s-0.2,0.2-0.4,0.2c-0.2,0.1-0.5,0.1-0.7,0c-0.2-0.1-0.4-0.3-0.5-0.6c-0.1-0.3-0.1-0.5,0.1-0.8
				c0.1-0.3,0.3-0.4,0.6-0.5c0.2,0,0.4-0.1,0.6-0.1s0.4-0.1,0.6-0.1c0.4-0.1,0.8-0.2,1.3-0.1c0.4,0.1,0.8,0.2,1.1,0.5l11.9,9
				c0.1,0.1,0.1,0.1,0.2,0.1c0.1,0,0.1-0.1,0-0.2l-4.1-11.2c0-0.1-0.1-0.2-0.3-0.1c-0.2,0.1-0.4,0.2-0.6,0.3
				c-0.2,0.1-0.4,0.2-0.6,0.3c-0.2,0.1-0.5,0.1-0.7,0c-0.2-0.1-0.4-0.3-0.5-0.5c-0.1-0.2-0.1-0.5,0-0.7s0.3-0.4,0.6-0.5
				c0.4-0.1,0.8-0.2,1.1-0.3c0.3-0.1,0.6-0.2,0.9-0.3c0.3-0.1,0.6-0.2,0.9-0.4C190.7,244.7,191.1,244.6,191.5,244.4z"/>
			<path class="st2" d="M221.4,245.2c0.2-0.2,0.4-0.2,0.7-0.2s0.5,0.2,0.6,0.4c0.1,0.2,0.2,0.5,0.1,0.7c-0.1,0.2-0.2,0.4-0.4,0.6
				c-0.4,0.2-0.7,0.4-1.1,0.5c-0.3,0.2-0.6,0.3-0.9,0.5c-0.3,0.2-0.5,0.3-0.8,0.5c-0.3,0.2-0.6,0.4-0.9,0.7
				c-0.2,0.1-0.4,0.2-0.7,0.1c-0.3,0-0.5-0.2-0.6-0.4c-0.1-0.2-0.2-0.5-0.1-0.7c0.1-0.3,0.2-0.4,0.4-0.5c0.2-0.1,0.4-0.2,0.6-0.3
				c0.2-0.1,0.4-0.2,0.6-0.3c0.1-0.1,0.1-0.2,0.1-0.3l-3.2-5.1c-0.1-0.1-0.2-0.1-0.3-0.1l-7.3,4.6c-0.1,0.1-0.1,0.2-0.1,0.3l3.2,5.1
				c0.1,0.1,0.2,0.1,0.3,0.1c0.2-0.1,0.3-0.3,0.5-0.4c0.2-0.1,0.3-0.3,0.5-0.4c0.2-0.2,0.4-0.2,0.7-0.2c0.3,0.1,0.5,0.2,0.6,0.4
				c0.1,0.2,0.2,0.5,0.1,0.7c-0.1,0.2-0.2,0.4-0.4,0.6c-0.4,0.2-0.7,0.4-1.1,0.5c-0.3,0.2-0.6,0.3-0.9,0.5c-0.3,0.2-0.5,0.3-0.8,0.5
				c-0.3,0.2-0.6,0.4-0.9,0.7c-0.2,0.1-0.4,0.2-0.7,0.1c-0.3,0-0.5-0.2-0.6-0.4c-0.1-0.2-0.2-0.5-0.1-0.7c0.1-0.3,0.2-0.4,0.4-0.5
				c0.2-0.1,0.5-0.2,0.7-0.4l0,0c0.1-0.1,0.1-0.1,0-0.2l-7.2-11.4c-0.1-0.1-0.2-0.1-0.3,0c-0.2,0.1-0.5,0.3-0.6,0.5
				c-0.2,0.1-0.4,0.2-0.7,0.1c-0.3,0-0.5-0.2-0.6-0.4s-0.2-0.5-0.1-0.7c0.1-0.3,0.2-0.4,0.4-0.5c0.4-0.2,0.8-0.4,1.1-0.5
				c0.3-0.2,0.6-0.3,0.9-0.5c0.3-0.2,0.5-0.3,0.8-0.5c0.3-0.2,0.6-0.4,0.9-0.7c0.2-0.2,0.4-0.2,0.7-0.2c0.3,0.1,0.5,0.2,0.6,0.4
				c0.1,0.2,0.2,0.5,0.1,0.7c-0.1,0.2-0.2,0.4-0.4,0.6c-0.2,0.1-0.4,0.2-0.6,0.3c-0.2,0.1-0.4,0.2-0.6,0.3c-0.1,0.1-0.1,0.2-0.1,0.3
				l2.9,4.5c0.1,0.1,0.2,0.1,0.3,0.1l7.3-4.6c0.1-0.1,0.1-0.2,0.1-0.3l-2.9-4.5c-0.1-0.1-0.2-0.1-0.3-0.1c-0.2,0.1-0.3,0.3-0.5,0.4
				c-0.2,0.1-0.3,0.3-0.5,0.4c-0.2,0.1-0.4,0.2-0.7,0.1c-0.3,0-0.5-0.2-0.6-0.4c-0.1-0.2-0.2-0.5-0.1-0.7c0.1-0.3,0.2-0.4,0.4-0.5
				c0.4-0.2,0.8-0.4,1.1-0.5c0.3-0.2,0.6-0.3,0.9-0.5c0.3-0.2,0.5-0.3,0.8-0.5c0.3-0.2,0.6-0.4,0.9-0.7c0.2-0.2,0.4-0.2,0.7-0.2
				s0.5,0.2,0.6,0.4c0.1,0.2,0.2,0.5,0.1,0.7c-0.1,0.2-0.2,0.4-0.4,0.6c-0.2,0.1-0.5,0.2-0.7,0.4l0,0c-0.1,0.1-0.1,0.1,0,0.2
				l7.2,11.4c0.1,0.1,0.2,0.1,0.3,0.1C221,245.5,221.2,245.4,221.4,245.2z"/>
			<path class="st2" d="M222.1,224.6c0.9-0.8,1.8-1.3,2.9-1.6c1.1-0.3,2.1-0.4,3.2-0.3c1.1,0.1,2.2,0.4,3.2,0.9
				c1,0.5,1.9,1.2,2.7,2.1c0.8,0.9,1.4,1.9,1.7,3c0.4,1.1,0.5,2.2,0.5,3.3c0,1.1-0.3,2.1-0.8,3.1c-0.5,1-1.1,1.9-2,2.6
				c-0.9,0.8-1.8,1.3-2.9,1.6s-2.1,0.4-3.2,0.3c-1.1-0.1-2.2-0.4-3.2-0.9c-1-0.5-1.9-1.2-2.7-2.1c-0.8-0.9-1.4-1.9-1.7-3
				s-0.5-2.2-0.5-3.3s0.3-2.1,0.8-3.1C220.6,226.2,221.2,225.3,222.1,224.6z M232.3,236.3c0.9-0.8,1.5-1.7,1.9-2.8
				c0.3-1.1,0.4-2.2,0.1-3.3c-0.3-1.2-0.8-2.2-1.7-3.3c-0.9-1-1.9-1.7-3-2.1c-1.1-0.4-2.2-0.5-3.3-0.3c-1.1,0.2-2.1,0.7-3.1,1.5
				c-0.9,0.8-1.6,1.8-1.9,2.9c-0.3,1.1-0.4,2.2-0.1,3.4c0.3,1.1,0.8,2.2,1.7,3.2c0.9,1,1.9,1.7,3,2.1c1.1,0.4,2.2,0.5,3.4,0.3
				C230.4,237.6,231.4,237.1,232.3,236.3z"/>
			<path class="st2" d="M239.4,206.3c0.1-0.2,0.4-0.3,0.6-0.4s0.5,0,0.7,0.2c0.2,0.2,0.3,0.4,0.3,0.6c0,0.3-0.1,0.5-0.3,0.7
				c-0.1,0.1-0.2,0.2-0.3,0.3s-0.2,0.2-0.3,0.3l0,0c-0.1,0.1-0.1,0.2,0.1,0.3l6.8,5.9c1,0.9,1.7,1.8,2.1,2.8c0.4,1,0.6,2,0.4,3
				s-0.6,2-1.4,2.9c-0.9,1-1.8,1.7-2.8,1.9c-1,0.3-2,0.2-3-0.1s-1.9-0.9-2.8-1.6l-6.8-5.8c-0.1-0.1-0.2-0.1-0.3,0
				c-0.1,0.1-0.2,0.3-0.3,0.4s-0.2,0.3-0.3,0.4c-0.2,0.2-0.4,0.3-0.6,0.4c-0.3,0-0.5,0-0.7-0.2c-0.2-0.2-0.3-0.4-0.3-0.7
				c0-0.3,0.1-0.5,0.3-0.7c0.3-0.3,0.6-0.6,0.8-0.8c0.2-0.2,0.5-0.5,0.7-0.7s0.4-0.5,0.6-0.8c0.2-0.3,0.4-0.6,0.7-1
				c0.1-0.2,0.4-0.3,0.6-0.4c0.3,0,0.5,0.1,0.7,0.2c0.2,0.2,0.3,0.4,0.3,0.6c0,0.3-0.1,0.5-0.3,0.7c-0.1,0.1-0.3,0.2-0.4,0.4
				c-0.1,0.1-0.3,0.3-0.4,0.4l0,0c-0.1,0.1-0.1,0.2,0,0.2l6.9,5.9c0.2,0.2,0.4,0.3,0.7,0.6c0.3,0.2,0.7,0.4,1.1,0.6
				c0.4,0.2,0.9,0.3,1.4,0.3s1-0.1,1.5-0.3c0.5-0.2,1-0.6,1.5-1.2c0.5-0.6,0.8-1.2,0.9-1.7s0.1-1.1,0-1.5c-0.1-0.5-0.3-0.9-0.5-1.3
				c-0.2-0.4-0.5-0.7-0.8-1c-0.3-0.3-0.5-0.5-0.6-0.6l-6.9-5.9c-0.1-0.1-0.2-0.1-0.2,0c-0.1,0.2-0.3,0.3-0.4,0.5s-0.2,0.3-0.3,0.5
				c-0.1,0.2-0.4,0.3-0.6,0.3c-0.3,0-0.5,0-0.7-0.2c-0.2-0.2-0.3-0.4-0.3-0.7c0-0.3,0.1-0.5,0.3-0.7c0.3-0.3,0.6-0.6,0.8-0.8
				c0.2-0.2,0.5-0.5,0.6-0.7c0.2-0.2,0.4-0.5,0.6-0.8C239,207,239.2,206.7,239.4,206.3z"/>
			<path class="st2" d="M246.7,203.7c0.5,0.4,1,0.5,1.4,0.5c0.5,0,1-0.2,1.5-0.5c0.5-0.3,1-0.7,1.5-1.1c0.5-0.4,1.1-0.8,1.6-1.3
				c0.6-0.4,1.1-0.8,1.7-1s1.2-0.4,1.9-0.3c0.6,0,1.3,0.3,2,0.7c0.8,0.5,1.4,1.2,1.7,2.1c0.3,0.8,0.4,1.7,0.2,2.7
				c-0.2,0.9-0.5,1.8-1.1,2.7c-0.8,1.1-1.6,1.9-2.5,2.4c-0.9,0.5-1.8,0.8-2.5,0.9c-0.3,0-0.5,0-0.8,0c-0.2-0.1-0.5-0.1-0.6-0.3
				c-0.3-0.2-0.5-0.5-0.6-0.9c-0.1-0.4,0-0.7,0.3-1.1c0.2-0.3,0.5-0.5,0.9-0.6c0.4,0,0.7,0,1,0.2c0.2,0.1,0.4,0.3,0.5,0.5
				c0.1,0.1,0.2,0.2,0.3,0.1c0.5-0.1,1-0.4,1.4-0.8c0.4-0.4,0.8-0.8,1.1-1.2c0.4-0.6,0.7-1.2,0.8-1.9c0.1-0.7,0.1-1.3,0-1.9
				c-0.2-0.6-0.5-1.1-1-1.4c-0.5-0.3-0.9-0.4-1.4-0.4c-0.5,0.1-1,0.3-1.5,0.6c-0.5,0.3-1,0.7-1.5,1.1c-0.5,0.4-1.1,0.8-1.6,1.2
				c-0.6,0.4-1.1,0.7-1.7,1s-1.2,0.4-1.8,0.3c-0.6,0-1.3-0.3-1.9-0.7c-1-0.6-1.6-1.4-1.9-2.2c-0.3-0.8-0.3-1.7-0.1-2.6
				c0.2-0.9,0.6-1.7,1.1-2.4c0.5-0.7,1-1.3,1.7-1.8c0.6-0.5,1.3-0.9,1.9-1c0.6-0.2,1.2-0.1,1.6,0.2c0.3,0.2,0.5,0.5,0.6,0.9
				c0.1,0.4,0,0.7-0.2,1.1c-0.2,0.3-0.5,0.5-0.9,0.6c-0.4,0.1-0.7,0-1.1-0.2c-0.1,0-0.1-0.1-0.1-0.1c0,0-0.1-0.1-0.1-0.1
				c-0.1-0.1-0.2-0.1-0.2-0.1c-0.2,0.1-0.5,0.3-0.8,0.6c-0.3,0.3-0.6,0.7-0.9,1.1c-0.3,0.5-0.5,0.9-0.7,1.5s-0.2,1.1-0.1,1.6
				C245.7,202.8,246.1,203.3,246.7,203.7z"/>
			<path class="st2" d="M266.2,186.9c0.1-0.2,0.3-0.4,0.6-0.5c0.3-0.1,0.5-0.1,0.7,0.1l1.7,1c0.3,0.2,0.6,0.5,0.7,0.8
				c0.1,0.4,0.1,0.7-0.1,1.1l-3.8,7.3c-0.1,0.3-0.3,0.5-0.3,0.8c-0.1,0.3-0.2,0.6-0.3,0.8c-0.1,0.3-0.3,0.5-0.5,0.6
				c-0.3,0.1-0.5,0.1-0.8-0.1c-0.3-0.1-0.4-0.3-0.5-0.6c-0.1-0.3,0-0.5,0.2-0.8l0.3-0.4l0,0c0.1-0.1,0-0.2-0.1-0.2l-11.8-6.1
				c-0.1-0.1-0.2,0-0.3,0.1c-0.1,0.1-0.1,0.2-0.1,0.3c0,0.1-0.1,0.2-0.1,0.3c-0.1,0.2-0.3,0.4-0.6,0.4c-0.3,0.1-0.5,0.1-0.7-0.1
				c-0.3-0.1-0.4-0.3-0.5-0.6c-0.1-0.3,0-0.5,0.2-0.8c0.2-0.3,0.4-0.5,0.5-0.8c0.2-0.3,0.4-0.5,0.5-0.8l3.7-7.2
				c0.2-0.3,0.5-0.6,0.8-0.7s0.7-0.1,1.1,0.1l1.8,0.8c0.2,0.1,0.4,0.3,0.5,0.5c0.1,0.3,0.1,0.5-0.1,0.8c-0.1,0.2-0.3,0.4-0.6,0.5
				s-0.5,0.1-0.7-0.1c-0.2-0.1-0.4-0.2-0.6-0.3s-0.4-0.3-0.6-0.4l0,0c-0.1,0-0.2,0-0.2,0.1l-3.1,6c-0.1,0.1,0,0.2,0.1,0.3l4.5,2.3
				c0.1,0.1,0.2,0,0.3-0.1l2.7-5.2c0.1-0.2,0.3-0.4,0.5-0.4s0.5-0.1,0.7,0.1s0.4,0.3,0.4,0.5c0.1,0.2,0,0.4-0.1,0.7l-2.7,5.2
				c-0.1,0.1,0,0.2,0.1,0.3l5.1,2.6c0.1,0.1,0.2,0,0.3-0.1l3.1-6c0.1-0.1,0-0.2-0.1-0.3c-0.2-0.1-0.5-0.2-0.7-0.3s-0.4-0.2-0.6-0.3
				c-0.2-0.1-0.4-0.3-0.5-0.6S266.1,187.1,266.2,186.9z"/>
		</g>
		<g>
			<path class="st3" d="M10.7,188.9c-0.5,0.3-0.9,0.6-1.1,1.1c-0.2,0.5-0.3,1-0.2,1.6c0,0.6,0.1,1.2,0.3,1.9c0.1,0.7,0.3,1.3,0.4,2
				s0.2,1.4,0.1,2c0,0.7-0.2,1.3-0.5,1.8c-0.3,0.6-0.8,1-1.6,1.5c-0.8,0.5-1.7,0.7-2.6,0.6c-0.9-0.1-1.7-0.4-2.5-1
				c-0.8-0.6-1.4-1.3-1.9-2.2c-0.7-1.2-1-2.3-1-3.3c0-1,0.1-1.9,0.4-2.6c0.1-0.3,0.2-0.5,0.4-0.7c0.2-0.2,0.3-0.4,0.5-0.5
				c0.3-0.2,0.7-0.2,1.1-0.2c0.4,0.1,0.7,0.3,0.9,0.8c0.2,0.3,0.2,0.7,0.1,1.1c-0.1,0.4-0.4,0.6-0.7,0.8c-0.2,0.1-0.4,0.2-0.7,0.2
				c-0.1,0-0.2,0.1-0.2,0.2c-0.1,0.5-0.1,1.1,0,1.6c0.1,0.5,0.3,1.1,0.6,1.5c0.3,0.6,0.8,1.1,1.3,1.6c0.5,0.4,1.1,0.7,1.7,0.8
				c0.6,0.1,1.2,0,1.7-0.3c0.5-0.3,0.8-0.6,1-1.1c0.2-0.5,0.2-1,0.2-1.6s-0.1-1.2-0.3-1.9c-0.1-0.7-0.2-1.3-0.4-2
				c-0.1-0.7-0.1-1.3-0.1-2c0-0.6,0.2-1.2,0.5-1.8c0.3-0.5,0.8-1,1.5-1.4c1-0.6,1.9-0.8,2.8-0.7c0.9,0.1,1.6,0.5,2.3,1.1
				c0.7,0.6,1.2,1.3,1.7,2c0.4,0.8,0.7,1.5,0.9,2.3c0.2,0.8,0.2,1.5,0.1,2.1s-0.4,1.1-0.9,1.4c-0.3,0.2-0.7,0.2-1.1,0.1
				s-0.7-0.3-0.9-0.7c-0.2-0.3-0.2-0.7-0.1-1.1c0.1-0.4,0.3-0.7,0.7-0.9c0.1,0,0.1-0.1,0.2-0.1s0.1,0,0.2-0.1c0.1,0,0.2-0.1,0.2-0.1
				c0-0.2,0-0.5-0.2-1c-0.1-0.4-0.3-0.9-0.6-1.3c-0.3-0.5-0.6-0.9-1-1.3c-0.4-0.4-0.9-0.6-1.4-0.8C11.9,188.5,11.3,188.6,10.7,188.9
				z"/>
			<path class="st3" d="M17.2,218.7c0.2,0.2,0.3,0.4,0.2,0.7c0,0.3-0.2,0.5-0.4,0.6c-0.2,0.2-0.4,0.2-0.7,0.2
				c-0.3,0-0.5-0.2-0.6-0.4c-0.2-0.4-0.4-0.7-0.6-1s-0.4-0.6-0.6-0.9c-0.2-0.2-0.4-0.5-0.6-0.7c-0.2-0.3-0.5-0.5-0.7-0.8
				c-0.2-0.2-0.2-0.4-0.2-0.7c0-0.3,0.1-0.5,0.4-0.6c0.2-0.2,0.4-0.2,0.7-0.2c0.3,0,0.5,0.2,0.6,0.4c0.1,0.2,0.2,0.3,0.3,0.5
				c0.1,0.2,0.2,0.4,0.3,0.6c0.1,0.1,0.2,0.1,0.3,0l4.8-3.6c0.1-0.1,0.1-0.2,0-0.3l-5.2-6.9c-0.1-0.1-0.2-0.1-0.3,0l-4.8,3.6
				c-0.1,0.1-0.1,0.2,0,0.3c0.2,0.2,0.3,0.3,0.4,0.5c0.1,0.2,0.3,0.3,0.4,0.5c0.2,0.2,0.3,0.4,0.2,0.7c0,0.3-0.2,0.5-0.4,0.6
				c-0.2,0.2-0.4,0.2-0.7,0.2c-0.3,0-0.5-0.2-0.6-0.4c-0.2-0.4-0.4-0.7-0.6-1c-0.2-0.3-0.4-0.6-0.6-0.9c-0.2-0.2-0.4-0.5-0.6-0.7
				c-0.2-0.3-0.5-0.5-0.7-0.8c-0.2-0.2-0.2-0.4-0.2-0.7c0-0.3,0.1-0.5,0.4-0.6c0.2-0.2,0.4-0.2,0.7-0.2s0.5,0.2,0.6,0.4
				c0.1,0.2,0.3,0.5,0.4,0.7l0,0c0.1,0.1,0.1,0.1,0.2,0l10.8-8.1c0.1-0.1,0.1-0.2,0-0.3c-0.2-0.2-0.3-0.4-0.5-0.6
				c-0.2-0.2-0.2-0.4-0.2-0.7s0.1-0.5,0.4-0.6c0.2-0.2,0.4-0.2,0.7-0.2s0.5,0.2,0.6,0.4c0.2,0.4,0.4,0.7,0.6,1
				c0.2,0.3,0.4,0.6,0.6,0.8c0.2,0.2,0.4,0.5,0.6,0.7c0.2,0.3,0.5,0.5,0.7,0.8c0.2,0.2,0.3,0.4,0.2,0.7c0,0.3-0.2,0.5-0.4,0.6
				c-0.2,0.2-0.4,0.2-0.7,0.2c-0.3,0-0.5-0.2-0.6-0.4c-0.1-0.2-0.2-0.4-0.3-0.5c-0.1-0.2-0.2-0.4-0.4-0.5c-0.1-0.1-0.2-0.1-0.3,0
				l-4.3,3.2c-0.1,0.1-0.1,0.2,0,0.3l5.2,6.9c0.1,0.1,0.2,0.1,0.3,0l4.3-3.2c0.1-0.1,0.1-0.2,0-0.3c-0.1-0.2-0.3-0.3-0.4-0.5
				c-0.1-0.2-0.3-0.3-0.4-0.5c-0.2-0.2-0.2-0.4-0.2-0.7c0-0.3,0.1-0.5,0.4-0.6c0.2-0.2,0.4-0.2,0.7-0.2s0.5,0.2,0.6,0.4
				c0.2,0.4,0.4,0.7,0.6,1c0.2,0.3,0.4,0.6,0.6,0.8c0.2,0.2,0.4,0.5,0.6,0.7c0.2,0.3,0.5,0.5,0.7,0.8c0.2,0.2,0.3,0.4,0.2,0.7
				c0,0.3-0.2,0.5-0.4,0.6c-0.2,0.2-0.4,0.2-0.7,0.2c-0.3,0-0.5-0.2-0.6-0.4c-0.1-0.2-0.3-0.5-0.4-0.7l0,0c-0.1-0.1-0.1-0.1-0.2,0
				l-10.8,8.1c-0.1,0.1-0.1,0.2,0,0.3C16.9,218.3,17,218.5,17.2,218.7z"/>
			<path class="st3" d="M24.6,226.6c0.2,0.2,0.3,0.4,0.3,0.7c0,0.3-0.1,0.5-0.3,0.7c-0.2,0.2-0.4,0.3-0.7,0.2
				c-0.3,0-0.5-0.1-0.6-0.3c-0.3-0.3-0.5-0.7-0.8-1s-0.5-0.6-0.7-0.8c-0.2-0.2-0.5-0.5-0.7-0.7c-0.3-0.2-0.5-0.5-0.9-0.8
				c-0.2-0.2-0.3-0.4-0.3-0.7c0-0.3,0.1-0.5,0.3-0.7s0.4-0.3,0.7-0.2c0.3,0,0.5,0.1,0.6,0.3c0.1,0.1,0.2,0.3,0.3,0.4
				c0.1,0.2,0.3,0.3,0.4,0.5l0,0c0.1,0.1,0.2,0.1,0.2,0l9.9-9.3c0.1-0.1,0.1-0.2,0-0.2c-0.1-0.1-0.3-0.3-0.4-0.4
				c-0.2-0.1-0.3-0.3-0.5-0.4c-0.2-0.2-0.3-0.4-0.3-0.7c0-0.3,0.1-0.5,0.3-0.7c0.2-0.2,0.4-0.3,0.7-0.2c0.3,0,0.5,0.1,0.6,0.3
				c0.3,0.4,0.5,0.7,0.8,1c0.2,0.3,0.5,0.6,0.7,0.8c0.2,0.2,0.5,0.5,0.7,0.7c0.3,0.2,0.5,0.5,0.9,0.8c0.2,0.2,0.3,0.4,0.3,0.7
				c0,0.3-0.1,0.5-0.3,0.7c-0.2,0.2-0.4,0.3-0.7,0.2c-0.3,0-0.5-0.1-0.6-0.3c-0.1-0.1-0.2-0.3-0.3-0.4c-0.1-0.1-0.2-0.3-0.4-0.4l0,0
				c-0.1-0.1-0.2-0.1-0.2,0l-9.9,9.3c-0.1,0.1-0.1,0.2,0,0.3c0.1,0.1,0.3,0.3,0.4,0.4C24.3,226.4,24.5,226.5,24.6,226.6z"/>
			<path class="st3" d="M39.3,240c0.2,0.1,0.3,0.4,0.4,0.6s0,0.5-0.2,0.7s-0.4,0.3-0.7,0.3c-0.3,0-0.5-0.1-0.7-0.3
				c0-0.1-0.2-0.2-0.5-0.6c-0.3-0.3-0.6-0.6-0.9-0.9c-0.5-0.4-0.6-0.9-0.6-1.5l0.9-7c0-0.1,0-0.2-0.1-0.3l-2.3-2
				c-0.1-0.1-0.2-0.1-0.3,0l-3.2,3.7c-0.1,0.1-0.1,0.2,0,0.3c0.2,0.1,0.4,0.2,0.5,0.4c0.2,0.1,0.3,0.2,0.5,0.4
				c0.2,0.1,0.3,0.4,0.4,0.6c0,0.3-0.1,0.5-0.2,0.7c-0.2,0.2-0.4,0.3-0.6,0.3c-0.3,0-0.5-0.1-0.7-0.3c-0.3-0.3-0.6-0.6-0.8-0.8
				c-0.2-0.2-0.5-0.5-0.7-0.7c-0.2-0.2-0.5-0.4-0.8-0.6c-0.3-0.2-0.6-0.4-1-0.7c-0.2-0.2-0.3-0.4-0.4-0.6c0-0.3,0-0.5,0.2-0.7
				s0.4-0.3,0.6-0.3c0.2,0,0.5,0.1,0.6,0.2c0.1,0.1,0.2,0.2,0.3,0.3c0.1,0.1,0.2,0.2,0.3,0.3l0,0c0.1,0.1,0.2,0.1,0.2,0l8.8-10.2
				c0.1-0.1,0.1-0.2,0-0.2c-0.1-0.1-0.2-0.2-0.4-0.3c-0.1-0.1-0.3-0.2-0.4-0.3c-0.2-0.2-0.3-0.4-0.3-0.6s0.1-0.5,0.2-0.7
				c0.2-0.2,0.4-0.3,0.7-0.3s0.5,0.1,0.7,0.3c0.2,0.2,0.4,0.5,0.7,0.7c0.2,0.3,0.5,0.5,0.7,0.7l3.2,2.8c1.5,1.3,2.4,2.7,2.6,4
				c0.3,1.4-0.1,2.7-1.2,3.9c-0.9,1.1-1.9,1.6-3,1.7c-1.1,0.1-2.2-0.2-3.3-0.7c-0.1-0.1-0.2,0-0.3,0.1l-0.8,6.1c0,0.1,0,0.2,0.1,0.3
				c0.2,0.2,0.4,0.3,0.7,0.5C38.8,239.7,39.1,239.9,39.3,240z M42.8,225.1l-2.6-2.3c-0.1-0.1-0.2-0.1-0.3,0l-4.1,4.7
				c-0.1,0.1-0.1,0.2,0,0.3l2.6,2.3c1,0.9,2,1.4,2.9,1.5c0.9,0.1,1.8-0.3,2.5-1.2c0.6-0.6,0.8-1.3,0.9-1.9c0-0.6-0.2-1.2-0.5-1.8
				S43.4,225.6,42.8,225.1z"/>
			<path class="st3" d="M58.3,234.2c1,0.6,1.7,1.4,2.4,2.3c0.6,0.9,1,1.9,1.2,3s0.2,2.2,0,3.3c-0.2,1.1-0.6,2.2-1.3,3.2
				c-0.6,1-1.4,1.8-2.4,2.5c-0.9,0.7-1.9,1.1-3,1.4c-1.1,0.3-2.1,0.3-3.2,0.1c-1.1-0.2-2.1-0.6-3.1-1.2c-1-0.6-1.7-1.4-2.4-2.3
				c-0.6-0.9-1-1.9-1.2-3c-0.2-1.1-0.2-2.2,0-3.3c0.2-1.1,0.6-2.2,1.3-3.2c0.6-1,1.4-1.8,2.4-2.5c0.9-0.7,1.9-1.1,3-1.4
				s2.1-0.3,3.2-0.1C56.3,233.2,57.4,233.6,58.3,234.2z M50,247.3c1,0.7,2.1,1,3.2,1c1.1,0,2.2-0.2,3.2-0.8c1-0.6,1.9-1.4,2.6-2.5
				c0.7-1.1,1.1-2.3,1.2-3.4c0.1-1.2-0.1-2.3-0.6-3.3c-0.5-1-1.3-1.9-2.3-2.5c-1.1-0.7-2.2-1-3.3-1c-1.1,0-2.2,0.3-3.3,0.8
				c-1,0.6-1.9,1.4-2.6,2.5c-0.7,1.1-1.1,2.3-1.2,3.4c-0.1,1.2,0.1,2.3,0.6,3.3C48.2,245.8,48.9,246.7,50,247.3z"/>
			<path class="st3" d="M74.7,260.1c0.3,0.1,0.4,0.2,0.5,0.5c0.1,0.2,0.1,0.5,0,0.7c-0.1,0.2-0.3,0.4-0.5,0.5
				c-0.2,0.1-0.5,0.1-0.7-0.1c-0.4-0.2-0.8-0.4-1.1-0.6c-0.3-0.2-0.6-0.3-0.9-0.5c-0.3-0.1-0.6-0.3-0.9-0.4s-0.7-0.2-1.1-0.4
				c-0.2-0.1-0.4-0.3-0.5-0.5s-0.1-0.5,0-0.7c0.1-0.2,0.3-0.4,0.5-0.5c0.2-0.1,0.5-0.1,0.7,0c0.1,0.1,0.3,0.1,0.4,0.2
				c0.2,0.1,0.3,0.2,0.4,0.3l0,0c0.1,0,0.1,0,0.2,0s0-0.1,0-0.2l-1.3-8.1c0-0.1-0.1-0.2-0.2-0.1l-3.6,1.2c-0.1,0-0.2,0.1-0.2,0.2
				l-1.7,3.7c-0.1,0.1,0,0.2,0.1,0.3c0.2,0.1,0.5,0.1,0.7,0.2c0.2,0.1,0.4,0.2,0.6,0.2c0.2,0.1,0.4,0.3,0.5,0.5
				c0.1,0.2,0.1,0.4,0,0.7c-0.1,0.2-0.3,0.4-0.5,0.5c-0.2,0.1-0.5,0.1-0.7-0.1c-0.4-0.2-0.7-0.4-1-0.6c-0.3-0.2-0.6-0.3-0.9-0.4
				c-0.3-0.1-0.6-0.2-0.9-0.4c-0.3-0.1-0.7-0.2-1.1-0.4c-0.2-0.1-0.4-0.3-0.5-0.5c-0.1-0.2-0.1-0.5,0-0.7c0.1-0.2,0.3-0.4,0.5-0.5
				c0.2-0.1,0.5-0.1,0.7,0.1l0.7,0.4c0.1,0.1,0.2,0,0.3-0.1l5.6-12.3c0.1-0.1,0-0.2-0.1-0.3l-0.7-0.3c-0.2-0.1-0.4-0.3-0.5-0.5
				c-0.1-0.2-0.1-0.5,0-0.7c0.1-0.2,0.3-0.4,0.5-0.5c0.2-0.1,0.5-0.1,0.7,0.1c0.4,0.2,0.7,0.4,1,0.6c0.3,0.2,0.6,0.3,0.9,0.4
				c0.3,0.1,0.6,0.2,0.9,0.4c0.3,0.1,0.7,0.2,1.1,0.4c0.3,0.1,0.4,0.2,0.5,0.5c0.1,0.2,0.1,0.5,0,0.7c-0.1,0.2-0.3,0.4-0.5,0.5
				s-0.5,0.1-0.7-0.1c-0.2-0.1-0.3-0.2-0.5-0.3c-0.2-0.1-0.4-0.2-0.6-0.3c-0.1-0.1-0.2,0-0.3,0.1l-2.7,6c0,0.1,0,0.1,0,0.2
				c0,0,0.1,0,0.2,0l9.3-3.1c0.1,0,0.1-0.1,0.1-0.1c0-0.1,0-0.1-0.1-0.2c-0.2-0.1-0.4-0.1-0.6-0.2s-0.4-0.1-0.5-0.2
				c-0.2-0.1-0.4-0.3-0.5-0.5s-0.1-0.5,0-0.7c0.1-0.2,0.3-0.4,0.5-0.5c0.3-0.1,0.5-0.1,0.7,0.1c0.4,0.2,0.8,0.4,1.1,0.6
				c0.3,0.2,0.6,0.3,0.9,0.5c0.3,0.1,0.6,0.3,1,0.4c0.3,0.1,0.7,0.3,1.1,0.4c0.3,0.1,0.4,0.2,0.5,0.5c0.1,0.2,0.1,0.5,0,0.7
				c-0.1,0.2-0.3,0.4-0.5,0.5c-0.2,0.1-0.5,0.1-0.7,0c-0.1,0-0.1-0.1-0.2-0.1c-0.1,0-0.1-0.1-0.2-0.1l-0.1,0c-0.1,0-0.1,0-0.2,0
				l-7.3,2.4c-0.1,0-0.2,0.1-0.1,0.3l1.5,9.7c0,0.1,0.1,0.2,0.2,0.2c0.2,0,0.3,0.1,0.5,0.2C74.4,260,74.6,260.1,74.7,260.1z"/>
			<path class="st3" d="M97.3,250.9c0.3,0,0.5,0.2,0.6,0.4s0.2,0.5,0.1,0.7s-0.2,0.4-0.5,0.5c-0.2,0.1-0.5,0.1-0.7,0
				c-0.1-0.1-0.3-0.1-0.4-0.2s-0.3-0.1-0.5-0.2l0,0c-0.1,0-0.2,0-0.2,0.2l-2.6,8.6c-0.4,1.3-0.9,2.3-1.6,3.1
				c-0.7,0.8-1.6,1.3-2.6,1.6s-2,0.2-3.2-0.1c-1.3-0.4-2.3-1-2.9-1.8c-0.6-0.8-1-1.8-1.1-2.8s0-2.1,0.3-3.2l2.6-8.6
				c0-0.1,0-0.2-0.1-0.2c-0.2,0-0.3-0.1-0.5-0.1c-0.2,0-0.3-0.1-0.5-0.1c-0.3-0.1-0.5-0.2-0.6-0.4c-0.1-0.2-0.2-0.5-0.1-0.7
				s0.2-0.4,0.5-0.6s0.5-0.1,0.7,0c0.4,0.2,0.8,0.3,1.1,0.4c0.3,0.1,0.6,0.2,0.9,0.3c0.3,0.1,0.6,0.2,0.9,0.2
				c0.3,0.1,0.7,0.2,1.2,0.2c0.3,0,0.5,0.2,0.6,0.4s0.1,0.5,0.1,0.7s-0.2,0.4-0.5,0.6s-0.5,0.1-0.7,0c-0.2-0.1-0.3-0.1-0.5-0.2
				c-0.2-0.1-0.4-0.1-0.6-0.2l0,0c-0.1,0-0.2,0-0.2,0.1l-2.6,8.7c-0.1,0.2-0.1,0.5-0.2,0.9c-0.1,0.4-0.1,0.8-0.1,1.3
				c0,0.5,0.1,0.9,0.3,1.4c0.2,0.5,0.5,0.9,0.9,1.3c0.4,0.4,1,0.7,1.7,0.9c0.7,0.2,1.4,0.3,1.9,0.2c0.5-0.1,1-0.3,1.4-0.6
				c0.4-0.3,0.7-0.6,1-1c0.2-0.4,0.4-0.7,0.6-1.1c0.1-0.4,0.3-0.6,0.3-0.8l2.6-8.7c0-0.1,0-0.2-0.1-0.2c-0.2-0.1-0.4-0.1-0.6-0.2
				s-0.4-0.1-0.6-0.1c-0.2-0.1-0.4-0.2-0.6-0.4s-0.2-0.5-0.1-0.7s0.2-0.4,0.5-0.6c0.2-0.1,0.5-0.1,0.7,0c0.4,0.2,0.8,0.3,1.1,0.4
				s0.6,0.2,0.9,0.3c0.3,0.1,0.6,0.2,0.9,0.2C96.5,250.8,96.9,250.9,97.3,250.9z"/>
			<path class="st3" d="M116.4,270c0.3,0,0.5,0.1,0.6,0.3c0.2,0.2,0.2,0.4,0.2,0.7c0,0.3-0.2,0.5-0.4,0.6c-0.2,0.1-0.5,0.2-0.7,0.1
				c-0.4-0.1-0.8-0.2-1.1-0.3c-0.3-0.1-0.6-0.1-0.9-0.2c-0.3,0-0.6-0.1-0.9-0.1c-0.3,0-0.7-0.1-1.2-0.1c-0.3,0-0.5-0.1-0.6-0.3
				c-0.2-0.2-0.2-0.4-0.2-0.7c0-0.3,0.2-0.5,0.4-0.6c0.2-0.2,0.4-0.2,0.7-0.1c0.2,0,0.4,0.1,0.6,0.1c0.2,0,0.4,0.1,0.6,0.2
				c0.1,0,0.2,0,0.2-0.2l1.9-12.4c0-0.1,0-0.2-0.1-0.2c-0.1,0-0.1,0-0.2,0.1l-6.7,10.7c-0.1,0.2-0.3,0.3-0.5,0.4
				c-0.2,0.1-0.4,0.1-0.7,0.1c-0.2,0-0.4-0.1-0.6-0.3c-0.2-0.2-0.3-0.4-0.3-0.6l-2.9-12.3c0-0.1,0-0.1-0.1-0.2c-0.1,0-0.1,0-0.1,0.2
				l-1.9,12.4c0,0.1,0,0.2,0.2,0.2c0.2,0,0.4,0,0.7,0s0.4,0,0.6,0c0.3,0,0.5,0.1,0.6,0.3c0.2,0.2,0.2,0.4,0.2,0.7
				c0,0.3-0.2,0.5-0.4,0.6s-0.4,0.2-0.7,0.1c-0.4-0.1-0.8-0.2-1.1-0.3c-0.3-0.1-0.6-0.1-0.9-0.2s-0.6-0.1-1-0.1s-0.7-0.1-1.2-0.1
				c-0.3,0-0.5-0.1-0.6-0.3c-0.2-0.2-0.2-0.4-0.2-0.7s0.2-0.5,0.4-0.6c0.2-0.2,0.5-0.2,0.7-0.1l0.7,0.2l0,0c0.1,0,0.2,0,0.2-0.2
				l2-13.3c0-0.2,0-0.2-0.2-0.2c-0.1,0-0.3,0-0.4,0c-0.1,0-0.3,0-0.4,0c-0.2,0-0.4-0.2-0.6-0.4c-0.1-0.2-0.2-0.4-0.2-0.7
				c0-0.3,0.2-0.5,0.4-0.6c0.2-0.1,0.5-0.2,0.7-0.1c0.5,0.1,0.9,0.2,1.2,0.3s0.7,0.2,1,0.2c0.4,0.1,0.7,0.2,1,0.5
				c0.3,0.3,0.5,0.6,0.6,1l2.6,11.7c0,0.1,0.1,0.2,0.1,0.2c0.1,0,0.1,0,0.2-0.1l6.3-10.3c0.2-0.3,0.5-0.6,0.9-0.8s0.8-0.2,1.2-0.2
				c0.4,0.1,0.7,0.1,1.1,0.1c0.3,0,0.7,0,1.2,0c0.3,0,0.5,0.1,0.7,0.3c0.2,0.2,0.2,0.5,0.2,0.7c0,0.3-0.2,0.5-0.4,0.6
				c-0.2,0.1-0.5,0.2-0.7,0.1l-0.7-0.2l0,0c-0.1,0-0.2,0-0.2,0.2l-2,13.4c0,0.2,0,0.2,0.2,0.2L116.4,270z"/>
			<path class="st3" d="M139.3,270.9c0.3,0,0.5,0.1,0.7,0.2c0.2,0.2,0.3,0.4,0.3,0.7c0,0.3-0.1,0.5-0.3,0.7
				c-0.2,0.2-0.4,0.2-0.7,0.2c-0.9-0.1-1.6-0.2-2.1-0.2c-0.6,0-1.3,0-2.1,0.1c-0.3,0-0.5-0.1-0.7-0.3c-0.2-0.2-0.3-0.4-0.3-0.7
				c0-0.3,0.1-0.5,0.3-0.7c0.2-0.2,0.4-0.3,0.7-0.2c0.2,0,0.3,0,0.5,0.1c0.2,0,0.4,0,0.5,0.1l0,0c0.2,0,0.2-0.1,0.1-0.2l-1.2-2.7
				c0-0.1-0.1-0.2-0.2-0.2l-8.2-0.2c-0.1,0-0.2,0-0.2,0.2l-1.3,2.7c0,0,0,0.1,0,0.1c0,0.1,0,0.1,0.1,0.1c0.2,0,0.4,0,0.6,0
				s0.4,0,0.5,0c0.3,0,0.5,0.1,0.7,0.2c0.2,0.2,0.3,0.4,0.3,0.7c0,0.3-0.1,0.5-0.3,0.7s-0.4,0.2-0.7,0.2c-0.9-0.1-1.6-0.2-2.1-0.2
				c-0.6,0-1.3,0-2.1,0.1c-0.3,0-0.5-0.1-0.7-0.3c-0.2-0.2-0.3-0.4-0.3-0.7c0-0.3,0.1-0.5,0.3-0.7c0.2-0.2,0.4-0.3,0.7-0.2
				c0.3,0.1,0.6,0.1,0.9,0.1l0,0c0.1,0,0.1,0,0.2-0.1l7.1-14.9c0.1-0.3,0.4-0.4,0.7-0.4c0.3,0,0.5,0.2,0.7,0.5l6.4,15.2
				c0.1,0.1,0.1,0.2,0.3,0.1C138.8,270.9,139.1,270.9,139.3,270.9z M131.2,258.5c0-0.1-0.1-0.1-0.1-0.1c0,0-0.1,0-0.1,0.1l-3.4,7.2
				c0,0,0,0.1,0,0.1c0,0.1,0.1,0.2,0.2,0.2l6.4,0.2c0.2,0,0.2-0.1,0.2-0.3L131.2,258.5z"/>
			<path class="st3" d="M145.9,259.3c0,0.6,0.2,1.1,0.5,1.4c0.3,0.4,0.8,0.6,1.3,0.9c0.6,0.2,1.2,0.4,1.8,0.5s1.3,0.3,2,0.5
				c0.7,0.2,1.3,0.4,1.9,0.7c0.6,0.3,1.1,0.7,1.4,1.3c0.4,0.5,0.6,1.2,0.7,2c0.1,1-0.1,1.8-0.6,2.6c-0.5,0.8-1.1,1.4-1.9,1.8
				c-0.8,0.5-1.8,0.7-2.8,0.8c-1.4,0.1-2.5,0-3.5-0.5c-0.9-0.4-1.7-0.9-2.2-1.4c-0.2-0.2-0.4-0.4-0.5-0.6c-0.1-0.2-0.2-0.5-0.2-0.7
				c0-0.4,0.1-0.7,0.3-1c0.2-0.3,0.6-0.5,1.1-0.5c0.4,0,0.7,0.1,1,0.4c0.3,0.3,0.4,0.6,0.5,0.9c0,0.2,0,0.5-0.1,0.7
				c0,0.1,0,0.2,0.1,0.3c0.4,0.3,0.9,0.5,1.5,0.7c0.5,0.1,1.1,0.2,1.6,0.1c0.7-0.1,1.4-0.2,2-0.5c0.6-0.3,1.1-0.7,1.5-1.2
				c0.4-0.5,0.5-1,0.5-1.7c0-0.6-0.2-1-0.6-1.3s-0.8-0.6-1.4-0.8c-0.6-0.2-1.2-0.4-1.8-0.5s-1.3-0.3-2-0.5s-1.3-0.4-1.8-0.7
				c-0.6-0.3-1-0.7-1.4-1.2c-0.4-0.5-0.6-1.1-0.6-1.9c-0.1-1.2,0.1-2.1,0.6-2.8s1.1-1.3,1.9-1.7c0.8-0.4,1.7-0.6,2.6-0.7
				c0.9-0.1,1.7,0,2.5,0.2c0.8,0.2,1.4,0.5,2,0.8s0.8,0.8,0.9,1.4c0,0.4-0.1,0.7-0.3,1c-0.2,0.3-0.6,0.5-1,0.5c-0.4,0-0.7-0.1-1-0.3
				c-0.3-0.3-0.5-0.6-0.5-1c0-0.1,0-0.1,0-0.2c0-0.1,0-0.1,0-0.2c0-0.1,0-0.2,0-0.2c-0.2-0.1-0.5-0.2-1-0.3c-0.4-0.1-0.9-0.1-1.4,0
				c-0.5,0-1.1,0.2-1.6,0.4c-0.5,0.2-0.9,0.5-1.3,0.9S145.9,258.6,145.9,259.3z"/>
			<path class="st3" d="M177.4,265.7c0.3-0.1,0.5-0.1,0.7,0.1c0.2,0.1,0.4,0.3,0.4,0.6c0.1,0.3,0,0.5-0.2,0.7s-0.4,0.3-0.6,0.4
				c-0.9,0.1-1.6,0.2-2.1,0.3c-0.6,0.1-1.3,0.3-2.1,0.6c-0.3,0.1-0.5,0-0.7-0.1c-0.2-0.1-0.4-0.3-0.4-0.6c-0.1-0.3,0-0.5,0.1-0.7
				s0.3-0.3,0.6-0.4c0.2,0,0.3,0,0.5-0.1c0.2,0,0.4,0,0.5-0.1l0,0c0.2,0,0.2-0.1,0.1-0.2l-1.7-2.4c-0.1-0.1-0.2-0.1-0.3-0.1l-8,1.6
				c-0.1,0-0.2,0.1-0.2,0.2l-0.7,2.9c0,0,0,0.1,0,0.1c0,0.1,0.1,0.1,0.2,0.1c0.2,0,0.4-0.1,0.5-0.1s0.4-0.1,0.5-0.2
				c0.3-0.1,0.5-0.1,0.7,0.1s0.4,0.3,0.4,0.6s0,0.5-0.1,0.7s-0.3,0.3-0.6,0.4c-0.9,0.1-1.6,0.2-2.1,0.3c-0.6,0.1-1.3,0.3-2.1,0.6
				c-0.3,0.1-0.5,0-0.7-0.1c-0.2-0.1-0.4-0.3-0.4-0.6s0-0.5,0.1-0.7s0.4-0.3,0.6-0.4c0.3,0,0.6,0,0.9-0.1l0,0c0.1,0,0.1-0.1,0.2-0.2
				l3.6-16.1c0.1-0.3,0.3-0.5,0.6-0.6c0.3-0.1,0.6,0,0.7,0.3l9.7,13.4c0.1,0.1,0.2,0.1,0.3,0.1C176.9,265.9,177.1,265.8,177.4,265.7
				z M166.7,255.5c0-0.1-0.1-0.1-0.2-0.1c0,0-0.1,0.1-0.1,0.2l-1.7,7.7c0,0,0,0.1,0,0.1c0,0.1,0.1,0.1,0.2,0.1l6.3-1.3
				c0.2,0,0.2-0.1,0.1-0.3L166.7,255.5z"/>
			<path class="st3" d="M191.5,244.4c0.2-0.1,0.5-0.1,0.7,0s0.4,0.3,0.5,0.5s0.1,0.5,0,0.7c-0.1,0.2-0.3,0.4-0.5,0.5l-0.8,0.2l0,0
				c-0.1,0-0.1,0.1-0.1,0.2l4.9,13.3c0.1,0.3,0.1,0.6,0,0.8c-0.1,0.3-0.3,0.5-0.6,0.6c-0.5,0.2-0.9,0.1-1.3-0.2l-12.3-9.2
				c-0.1-0.1-0.1-0.1-0.2-0.1c-0.1,0-0.1,0.1,0,0.2l4,10.9c0,0.1,0.1,0.2,0.3,0.1c0.2-0.1,0.4-0.2,0.6-0.3s0.4-0.2,0.6-0.3
				c0.2-0.1,0.5-0.1,0.7,0c0.2,0.1,0.4,0.3,0.5,0.5c0.1,0.2,0.1,0.5,0,0.7c-0.1,0.2-0.3,0.4-0.6,0.5c-0.4,0.1-0.8,0.2-1.1,0.3
				s-0.6,0.2-0.9,0.3c-0.3,0.1-0.6,0.2-0.9,0.4c-0.3,0.1-0.7,0.3-1.1,0.5c-0.2,0.1-0.5,0.1-0.7,0c-0.2-0.1-0.4-0.3-0.5-0.5
				c-0.1-0.2-0.1-0.5,0-0.7c0.1-0.2,0.3-0.4,0.5-0.4l0.8-0.2l0,0c0.1,0,0.1-0.1,0.1-0.2l-4.6-12.6c0-0.1-0.1-0.2-0.2-0.1
				c-0.1,0-0.2,0.1-0.4,0.2s-0.2,0.2-0.4,0.2c-0.2,0.1-0.5,0.1-0.7,0c-0.2-0.1-0.4-0.3-0.5-0.6c-0.1-0.3-0.1-0.5,0.1-0.8
				c0.1-0.3,0.3-0.4,0.6-0.5c0.2,0,0.4-0.1,0.6-0.1s0.4-0.1,0.6-0.1c0.4-0.1,0.8-0.2,1.3-0.1c0.4,0.1,0.8,0.2,1.1,0.5l11.9,9
				c0.1,0.1,0.1,0.1,0.2,0.1c0.1,0,0.1-0.1,0-0.2l-4.1-11.2c0-0.1-0.1-0.2-0.3-0.1c-0.2,0.1-0.4,0.2-0.6,0.3
				c-0.2,0.1-0.4,0.2-0.6,0.3c-0.2,0.1-0.5,0.1-0.7,0c-0.2-0.1-0.4-0.3-0.5-0.5c-0.1-0.2-0.1-0.5,0-0.7s0.3-0.4,0.6-0.5
				c0.4-0.1,0.8-0.2,1.1-0.3c0.3-0.1,0.6-0.2,0.9-0.3c0.3-0.1,0.6-0.2,0.9-0.4C190.7,244.7,191.1,244.6,191.5,244.4z"/>
			<path class="st3" d="M221.4,245.2c0.2-0.2,0.4-0.2,0.7-0.2s0.5,0.2,0.6,0.4c0.1,0.2,0.2,0.5,0.1,0.7c-0.1,0.2-0.2,0.4-0.4,0.6
				c-0.4,0.2-0.7,0.4-1.1,0.5c-0.3,0.2-0.6,0.3-0.9,0.5c-0.3,0.2-0.5,0.3-0.8,0.5c-0.3,0.2-0.6,0.4-0.9,0.7
				c-0.2,0.1-0.4,0.2-0.7,0.1c-0.3,0-0.5-0.2-0.6-0.4c-0.1-0.2-0.2-0.5-0.1-0.7c0.1-0.3,0.2-0.4,0.4-0.5c0.2-0.1,0.4-0.2,0.6-0.3
				c0.2-0.1,0.4-0.2,0.6-0.3c0.1-0.1,0.1-0.2,0.1-0.3l-3.2-5.1c-0.1-0.1-0.2-0.1-0.3-0.1l-7.3,4.6c-0.1,0.1-0.1,0.2-0.1,0.3l3.2,5.1
				c0.1,0.1,0.2,0.1,0.3,0.1c0.2-0.1,0.3-0.3,0.5-0.4c0.2-0.1,0.3-0.3,0.5-0.4c0.2-0.2,0.4-0.2,0.7-0.2c0.3,0.1,0.5,0.2,0.6,0.4
				c0.1,0.2,0.2,0.5,0.1,0.7c-0.1,0.2-0.2,0.4-0.4,0.6c-0.4,0.2-0.7,0.4-1.1,0.5c-0.3,0.2-0.6,0.3-0.9,0.5c-0.3,0.2-0.5,0.3-0.8,0.5
				c-0.3,0.2-0.6,0.4-0.9,0.7c-0.2,0.1-0.4,0.2-0.7,0.1c-0.3,0-0.5-0.2-0.6-0.4c-0.1-0.2-0.2-0.5-0.1-0.7c0.1-0.3,0.2-0.4,0.4-0.5
				c0.2-0.1,0.5-0.2,0.7-0.4l0,0c0.1-0.1,0.1-0.1,0-0.2l-7.2-11.4c-0.1-0.1-0.2-0.1-0.3,0c-0.2,0.1-0.5,0.3-0.6,0.5
				c-0.2,0.1-0.4,0.2-0.7,0.1c-0.3,0-0.5-0.2-0.6-0.4s-0.2-0.5-0.1-0.7c0.1-0.3,0.2-0.4,0.4-0.5c0.4-0.2,0.8-0.4,1.1-0.5
				c0.3-0.2,0.6-0.3,0.9-0.5c0.3-0.2,0.5-0.3,0.8-0.5c0.3-0.2,0.6-0.4,0.9-0.7c0.2-0.2,0.4-0.2,0.7-0.2c0.3,0.1,0.5,0.2,0.6,0.4
				c0.1,0.2,0.2,0.5,0.1,0.7c-0.1,0.2-0.2,0.4-0.4,0.6c-0.2,0.1-0.4,0.2-0.6,0.3c-0.2,0.1-0.4,0.2-0.6,0.3c-0.1,0.1-0.1,0.2-0.1,0.3
				l2.9,4.5c0.1,0.1,0.2,0.1,0.3,0.1l7.3-4.6c0.1-0.1,0.1-0.2,0.1-0.3l-2.9-4.5c-0.1-0.1-0.2-0.1-0.3-0.1c-0.2,0.1-0.3,0.3-0.5,0.4
				c-0.2,0.1-0.3,0.3-0.5,0.4c-0.2,0.1-0.4,0.2-0.7,0.1c-0.3,0-0.5-0.2-0.6-0.4c-0.1-0.2-0.2-0.5-0.1-0.7c0.1-0.3,0.2-0.4,0.4-0.5
				c0.4-0.2,0.8-0.4,1.1-0.5c0.3-0.2,0.6-0.3,0.9-0.5c0.3-0.2,0.5-0.3,0.8-0.5c0.3-0.2,0.6-0.4,0.9-0.7c0.2-0.2,0.4-0.2,0.7-0.2
				s0.5,0.2,0.6,0.4c0.1,0.2,0.2,0.5,0.1,0.7c-0.1,0.2-0.2,0.4-0.4,0.6c-0.2,0.1-0.5,0.2-0.7,0.4l0,0c-0.1,0.1-0.1,0.1,0,0.2
				l7.2,11.4c0.1,0.1,0.2,0.1,0.3,0.1C221,245.5,221.2,245.4,221.4,245.2z"/>
			<path class="st3" d="M222.1,224.6c0.9-0.8,1.8-1.3,2.9-1.6c1.1-0.3,2.1-0.4,3.2-0.3c1.1,0.1,2.2,0.4,3.2,0.9
				c1,0.5,1.9,1.2,2.7,2.1c0.8,0.9,1.4,1.9,1.7,3c0.4,1.1,0.5,2.2,0.5,3.3c0,1.1-0.3,2.1-0.8,3.1c-0.5,1-1.1,1.9-2,2.6
				c-0.9,0.8-1.8,1.3-2.9,1.6s-2.1,0.4-3.2,0.3c-1.1-0.1-2.2-0.4-3.2-0.9c-1-0.5-1.9-1.2-2.7-2.1c-0.8-0.9-1.4-1.9-1.7-3
				s-0.5-2.2-0.5-3.3s0.3-2.1,0.8-3.1C220.6,226.2,221.2,225.3,222.1,224.6z M232.3,236.3c0.9-0.8,1.5-1.7,1.9-2.8
				c0.3-1.1,0.4-2.2,0.1-3.3c-0.3-1.2-0.8-2.2-1.7-3.3c-0.9-1-1.9-1.7-3-2.1c-1.1-0.4-2.2-0.5-3.3-0.3c-1.1,0.2-2.1,0.7-3.1,1.5
				c-0.9,0.8-1.6,1.8-1.9,2.9c-0.3,1.1-0.4,2.2-0.1,3.4c0.3,1.1,0.8,2.2,1.7,3.2c0.9,1,1.9,1.7,3,2.1c1.1,0.4,2.2,0.5,3.4,0.3
				C230.4,237.6,231.4,237.1,232.3,236.3z"/>
			<path class="st3" d="M239.4,206.3c0.1-0.2,0.4-0.3,0.6-0.4s0.5,0,0.7,0.2c0.2,0.2,0.3,0.4,0.3,0.6c0,0.3-0.1,0.5-0.3,0.7
				c-0.1,0.1-0.2,0.2-0.3,0.3s-0.2,0.2-0.3,0.3l0,0c-0.1,0.1-0.1,0.2,0.1,0.3l6.8,5.9c1,0.9,1.7,1.8,2.1,2.8c0.4,1,0.6,2,0.4,3
				s-0.6,2-1.4,2.9c-0.9,1-1.8,1.7-2.8,1.9c-1,0.3-2,0.2-3-0.1s-1.9-0.9-2.8-1.6l-6.8-5.8c-0.1-0.1-0.2-0.1-0.3,0
				c-0.1,0.1-0.2,0.3-0.3,0.4s-0.2,0.3-0.3,0.4c-0.2,0.2-0.4,0.3-0.6,0.4c-0.3,0-0.5,0-0.7-0.2c-0.2-0.2-0.3-0.4-0.3-0.7
				c0-0.3,0.1-0.5,0.3-0.7c0.3-0.3,0.6-0.6,0.8-0.8c0.2-0.2,0.5-0.5,0.7-0.7s0.4-0.5,0.6-0.8c0.2-0.3,0.4-0.6,0.7-1
				c0.1-0.2,0.4-0.3,0.6-0.4c0.3,0,0.5,0.1,0.7,0.2c0.2,0.2,0.3,0.4,0.3,0.6c0,0.3-0.1,0.5-0.3,0.7c-0.1,0.1-0.3,0.2-0.4,0.4
				c-0.1,0.1-0.3,0.3-0.4,0.4l0,0c-0.1,0.1-0.1,0.2,0,0.2l6.9,5.9c0.2,0.2,0.4,0.3,0.7,0.6c0.3,0.2,0.7,0.4,1.1,0.6
				c0.4,0.2,0.9,0.3,1.4,0.3s1-0.1,1.5-0.3c0.5-0.2,1-0.6,1.5-1.2c0.5-0.6,0.8-1.2,0.9-1.7s0.1-1.1,0-1.5c-0.1-0.5-0.3-0.9-0.5-1.3
				c-0.2-0.4-0.5-0.7-0.8-1c-0.3-0.3-0.5-0.5-0.6-0.6l-6.9-5.9c-0.1-0.1-0.2-0.1-0.2,0c-0.1,0.2-0.3,0.3-0.4,0.5s-0.2,0.3-0.3,0.5
				c-0.1,0.2-0.4,0.3-0.6,0.3c-0.3,0-0.5,0-0.7-0.2c-0.2-0.2-0.3-0.4-0.3-0.7c0-0.3,0.1-0.5,0.3-0.7c0.3-0.3,0.6-0.6,0.8-0.8
				c0.2-0.2,0.5-0.5,0.6-0.7c0.2-0.2,0.4-0.5,0.6-0.8C239,207,239.2,206.7,239.4,206.3z"/>
			<path class="st3" d="M246.7,203.7c0.5,0.4,1,0.5,1.4,0.5c0.5,0,1-0.2,1.5-0.5c0.5-0.3,1-0.7,1.5-1.1c0.5-0.4,1.1-0.8,1.6-1.3
				c0.6-0.4,1.1-0.8,1.7-1s1.2-0.4,1.9-0.3c0.6,0,1.3,0.3,2,0.7c0.8,0.5,1.4,1.2,1.7,2.1c0.3,0.8,0.4,1.7,0.2,2.7
				c-0.2,0.9-0.5,1.8-1.1,2.7c-0.8,1.1-1.6,1.9-2.5,2.4c-0.9,0.5-1.8,0.8-2.5,0.9c-0.3,0-0.5,0-0.8,0c-0.2-0.1-0.5-0.1-0.6-0.3
				c-0.3-0.2-0.5-0.5-0.6-0.9c-0.1-0.4,0-0.7,0.3-1.1c0.2-0.3,0.5-0.5,0.9-0.6c0.4,0,0.7,0,1,0.2c0.2,0.1,0.4,0.3,0.5,0.5
				c0.1,0.1,0.2,0.2,0.3,0.1c0.5-0.1,1-0.4,1.4-0.8c0.4-0.4,0.8-0.8,1.1-1.2c0.4-0.6,0.7-1.2,0.8-1.9c0.1-0.7,0.1-1.3,0-1.9
				c-0.2-0.6-0.5-1.1-1-1.4c-0.5-0.3-0.9-0.4-1.4-0.4c-0.5,0.1-1,0.3-1.5,0.6c-0.5,0.3-1,0.7-1.5,1.1c-0.5,0.4-1.1,0.8-1.6,1.2
				c-0.6,0.4-1.1,0.7-1.7,1s-1.2,0.4-1.8,0.3c-0.6,0-1.3-0.3-1.9-0.7c-1-0.6-1.6-1.4-1.9-2.2c-0.3-0.8-0.3-1.7-0.1-2.6
				c0.2-0.9,0.6-1.7,1.1-2.4c0.5-0.7,1-1.3,1.7-1.8c0.6-0.5,1.3-0.9,1.9-1c0.6-0.2,1.2-0.1,1.6,0.2c0.3,0.2,0.5,0.5,0.6,0.9
				c0.1,0.4,0,0.7-0.2,1.1c-0.2,0.3-0.5,0.5-0.9,0.6c-0.4,0.1-0.7,0-1.1-0.2c-0.1,0-0.1-0.1-0.1-0.1c0,0-0.1-0.1-0.1-0.1
				c-0.1-0.1-0.2-0.1-0.2-0.1c-0.2,0.1-0.5,0.3-0.8,0.6c-0.3,0.3-0.6,0.7-0.9,1.1c-0.3,0.5-0.5,0.9-0.7,1.5s-0.2,1.1-0.1,1.6
				C245.7,202.8,246.1,203.3,246.7,203.7z"/>
			<path class="st3" d="M266.2,186.9c0.1-0.2,0.3-0.4,0.6-0.5c0.3-0.1,0.5-0.1,0.7,0.1l1.7,1c0.3,0.2,0.6,0.5,0.7,0.8
				c0.1,0.4,0.1,0.7-0.1,1.1l-3.8,7.3c-0.1,0.3-0.3,0.5-0.3,0.8c-0.1,0.3-0.2,0.6-0.3,0.8c-0.1,0.3-0.3,0.5-0.5,0.6
				c-0.3,0.1-0.5,0.1-0.8-0.1c-0.3-0.1-0.4-0.3-0.5-0.6c-0.1-0.3,0-0.5,0.2-0.8l0.3-0.4l0,0c0.1-0.1,0-0.2-0.1-0.2l-11.8-6.1
				c-0.1-0.1-0.2,0-0.3,0.1c-0.1,0.1-0.1,0.2-0.1,0.3c0,0.1-0.1,0.2-0.1,0.3c-0.1,0.2-0.3,0.4-0.6,0.4c-0.3,0.1-0.5,0.1-0.7-0.1
				c-0.3-0.1-0.4-0.3-0.5-0.6c-0.1-0.3,0-0.5,0.2-0.8c0.2-0.3,0.4-0.5,0.5-0.8c0.2-0.3,0.4-0.5,0.5-0.8l3.7-7.2
				c0.2-0.3,0.5-0.6,0.8-0.7s0.7-0.1,1.1,0.1l1.8,0.8c0.2,0.1,0.4,0.3,0.5,0.5c0.1,0.3,0.1,0.5-0.1,0.8c-0.1,0.2-0.3,0.4-0.6,0.5
				s-0.5,0.1-0.7-0.1c-0.2-0.1-0.4-0.2-0.6-0.3s-0.4-0.3-0.6-0.4l0,0c-0.1,0-0.2,0-0.2,0.1l-3.1,6c-0.1,0.1,0,0.2,0.1,0.3l4.5,2.3
				c0.1,0.1,0.2,0,0.3-0.1l2.7-5.2c0.1-0.2,0.3-0.4,0.5-0.4s0.5-0.1,0.7,0.1s0.4,0.3,0.4,0.5c0.1,0.2,0,0.4-0.1,0.7l-2.7,5.2
				c-0.1,0.1,0,0.2,0.1,0.3l5.1,2.6c0.1,0.1,0.2,0,0.3-0.1l3.1-6c0.1-0.1,0-0.2-0.1-0.3c-0.2-0.1-0.5-0.2-0.7-0.3s-0.4-0.2-0.6-0.3
				c-0.2-0.1-0.4-0.3-0.5-0.6S266.1,187.1,266.2,186.9z"/>
		</g>
	</g>
</g>
</svg>
